<svg width="508" height="52" viewBox="0 0 508 52" fill="none" xmlns="http://www.w3.org/2000/svg">
<mask id="path-1-outside-1_191_568" maskUnits="userSpaceOnUse" x="0" y="0" width="508" height="52" fill="black">
<rect fill="white" width="508" height="52"/>
<path d="M34.9375 22.7188V30.3125C34.9375 33.5208 34.5417 36.3333 33.75 38.75C32.9792 41.1458 31.875 43.1562 30.4375 44.7812C29.0208 46.3854 27.3021 47.5938 25.2812 48.4062C23.2812 49.2188 21.0625 49.625 18.625 49.625C16.1875 49.625 13.9583 49.2188 11.9375 48.4062C9.9375 47.5938 8.20833 46.3854 6.75 44.7812C5.3125 43.1562 4.19792 41.1458 3.40625 38.75C2.61458 36.3333 2.21875 33.5208 2.21875 30.3125V22.7188C2.21875 19.4271 2.60417 16.5521 3.375 14.0938C4.14583 11.6146 5.26042 9.55208 6.71875 7.90625C8.17708 6.23958 9.90625 4.98958 11.9062 4.15625C13.9062 3.30208 16.125 2.875 18.5625 2.875C21 2.875 23.2188 3.30208 25.2188 4.15625C27.2188 4.98958 28.9479 6.23958 30.4062 7.90625C31.8646 9.55208 32.9792 11.6146 33.75 14.0938C34.5417 16.5521 34.9375 19.4271 34.9375 22.7188ZM25.8438 30.3125V22.6562C25.8438 20.4896 25.6875 18.6458 25.375 17.125C25.0625 15.5833 24.5938 14.3229 23.9688 13.3438C23.3438 12.3646 22.5833 11.6458 21.6875 11.1875C20.7917 10.7292 19.75 10.5 18.5625 10.5C17.375 10.5 16.3229 10.7292 15.4062 11.1875C14.5104 11.6458 13.75 12.3646 13.125 13.3438C12.5208 14.3229 12.0625 15.5833 11.75 17.125C11.4583 18.6458 11.3125 20.4896 11.3125 22.6562V30.3125C11.3125 32.3958 11.4688 34.1771 11.7812 35.6562C12.0938 37.1354 12.5625 38.3438 13.1875 39.2812C13.8125 40.2188 14.5729 40.9167 15.4688 41.375C16.3854 41.8125 17.4375 42.0312 18.625 42.0312C19.7917 42.0312 20.8229 41.8125 21.7188 41.375C22.6354 40.9167 23.3958 40.2188 24 39.2812C24.6042 38.3438 25.0625 37.1354 25.375 35.6562C25.6875 34.1771 25.8438 32.3958 25.8438 30.3125ZM67.0312 3.5V11.0938H50.6875V49H41.5625V3.5H67.0312ZM47.7188 19.875H56.375C59.4167 19.875 62.0521 20.4688 64.2812 21.6562C66.5104 22.8438 68.2292 24.5208 69.4375 26.6875C70.6667 28.8542 71.2812 31.3854 71.2812 34.2812C71.2812 36.4688 70.9271 38.4583 70.2188 40.25C69.5312 42.0417 68.5312 43.5938 67.2188 44.9062C65.9271 46.2188 64.3646 47.2292 62.5312 47.9375C60.7188 48.6458 58.6667 49 56.375 49H41.5625V3.5H50.7188V41.4375H56.375C57.6667 41.4375 58.7292 41.1146 59.5625 40.4688C60.4167 39.8021 61.0625 38.9271 61.5 37.8438C61.9375 36.7396 62.1562 35.5312 62.1562 34.2188C62.1562 32.9479 61.9375 31.8021 61.5 30.7812C61.0625 29.7604 60.4167 28.9583 59.5625 28.375C58.7292 27.7708 57.6667 27.4688 56.375 27.4688H47.7188V19.875ZM98.2188 33.8438H107.312C107.188 37.2604 106.5 40.1458 105.25 42.5C104 44.8333 102.219 46.6042 99.9062 47.8125C97.6146 49.0208 94.8438 49.625 91.5938 49.625C89.0729 49.625 86.8333 49.2083 84.875 48.375C82.9167 47.5208 81.25 46.2708 79.875 44.625C78.5 42.9792 77.4583 40.9479 76.75 38.5312C76.0625 36.0938 75.7188 33.2917 75.7188 30.125V22.4062C75.7188 19.2396 76.0833 16.4375 76.8125 14C77.5625 11.5625 78.625 9.52083 80 7.875C81.3958 6.20833 83.0729 4.95833 85.0312 4.125C87.0104 3.27083 89.2396 2.84375 91.7188 2.84375C95.0312 2.84375 97.8021 3.46875 100.031 4.71875C102.26 5.96875 103.979 7.79167 105.188 10.1875C106.417 12.5625 107.156 15.4688 107.406 18.9062H98.25C98.2083 16.7396 97.9688 15.0417 97.5312 13.8125C97.1146 12.5625 96.4479 11.6875 95.5312 11.1875C94.6146 10.6667 93.3438 10.4062 91.7188 10.4062C90.5104 10.4062 89.4688 10.625 88.5938 11.0625C87.7188 11.4792 87 12.1562 86.4375 13.0938C85.875 14.0312 85.4583 15.2604 85.1875 16.7812C84.9375 18.3021 84.8125 20.1562 84.8125 22.3438V30.125C84.8125 32.2708 84.9271 34.1042 85.1562 35.625C85.3854 37.125 85.75 38.3542 86.25 39.3125C86.75 40.2708 87.4271 40.9688 88.2812 41.4062C89.1562 41.8438 90.2604 42.0625 91.5938 42.0625C93.1354 42.0625 94.375 41.8333 95.3125 41.375C96.2708 40.9167 96.9792 40.0938 97.4375 38.9062C97.8958 37.7188 98.1562 36.0312 98.2188 33.8438ZM138.25 3.5V11.0938H119.594V3.5H138.25ZM144.875 3.5V49H135.781V3.5H144.875ZM118.469 3.5H127.531L126.625 26.4375C126.521 29.875 126.25 32.8542 125.812 35.375C125.396 37.875 124.833 40 124.125 41.75C123.438 43.4792 122.573 44.875 121.531 45.9375C120.49 47 119.271 47.7812 117.875 48.2812C116.5 48.7604 114.958 49 113.25 49H111.094V41.4375L112.125 41.3125C112.938 41.2083 113.656 40.9479 114.281 40.5312C114.906 40.0938 115.438 39.4479 115.875 38.5938C116.312 37.7188 116.667 36.6042 116.938 35.25C117.229 33.875 117.448 32.2083 117.594 30.25C117.76 28.2917 117.875 26.0104 117.938 23.4062L118.469 3.5ZM164.125 32.4062L172.875 3.5H182.688L170.188 40.0938C169.688 41.3646 169.135 42.5833 168.531 43.75C167.948 44.8958 167.25 45.9167 166.438 46.8125C165.625 47.7083 164.646 48.4062 163.5 48.9062C162.354 49.4062 160.99 49.6562 159.406 49.6562C159.031 49.6562 158.552 49.6458 157.969 49.625C157.406 49.6042 156.948 49.5833 156.594 49.5625L156.438 41.9688C156.646 42.0104 156.99 42.0417 157.469 42.0625C157.948 42.0833 158.281 42.0938 158.469 42.0938C159.448 42.0938 160.188 41.9271 160.688 41.5938C161.208 41.2396 161.604 40.7396 161.875 40.0938C162.167 39.4479 162.417 38.6875 162.625 37.8125L164.125 32.4062ZM159.875 3.5L167.281 25.4688L170.031 36.3125L163.25 36.4062L150.094 3.5H159.875ZM213.188 3.5V11.0938H196.812V49H187.688V3.5H213.188ZM248.75 22.7188V30.3125C248.75 33.5208 248.354 36.3333 247.562 38.75C246.792 41.1458 245.688 43.1562 244.25 44.7812C242.833 46.3854 241.115 47.5938 239.094 48.4062C237.094 49.2188 234.875 49.625 232.438 49.625C230 49.625 227.771 49.2188 225.75 48.4062C223.75 47.5938 222.021 46.3854 220.562 44.7812C219.125 43.1562 218.01 41.1458 217.219 38.75C216.427 36.3333 216.031 33.5208 216.031 30.3125V22.7188C216.031 19.4271 216.417 16.5521 217.188 14.0938C217.958 11.6146 219.073 9.55208 220.531 7.90625C221.99 6.23958 223.719 4.98958 225.719 4.15625C227.719 3.30208 229.938 2.875 232.375 2.875C234.812 2.875 237.031 3.30208 239.031 4.15625C241.031 4.98958 242.76 6.23958 244.219 7.90625C245.677 9.55208 246.792 11.6146 247.562 14.0938C248.354 16.5521 248.75 19.4271 248.75 22.7188ZM239.656 30.3125V22.6562C239.656 20.4896 239.5 18.6458 239.188 17.125C238.875 15.5833 238.406 14.3229 237.781 13.3438C237.156 12.3646 236.396 11.6458 235.5 11.1875C234.604 10.7292 233.562 10.5 232.375 10.5C231.188 10.5 230.135 10.7292 229.219 11.1875C228.323 11.6458 227.562 12.3646 226.938 13.3438C226.333 14.3229 225.875 15.5833 225.562 17.125C225.271 18.6458 225.125 20.4896 225.125 22.6562V30.3125C225.125 32.3958 225.281 34.1771 225.594 35.6562C225.906 37.1354 226.375 38.3438 227 39.2812C227.625 40.2188 228.385 40.9167 229.281 41.375C230.198 41.8125 231.25 42.0312 232.438 42.0312C233.604 42.0312 234.635 41.8125 235.531 41.375C236.448 40.9167 237.208 40.2188 237.812 39.2812C238.417 38.3438 238.875 37.1354 239.188 35.6562C239.5 34.1771 239.656 32.3958 239.656 30.3125ZM270.781 29.1562H261.438L261.406 22.5312H269.344C270.594 22.5312 271.615 22.3229 272.406 21.9062C273.219 21.4688 273.812 20.8333 274.188 20C274.583 19.1458 274.781 18.1146 274.781 16.9062C274.781 15.5104 274.594 14.3958 274.219 13.5625C273.865 12.7083 273.292 12.0833 272.5 11.6875C271.729 11.2917 270.708 11.0938 269.438 11.0938H264.562V49H255.406V3.5H269.438C271.688 3.5 273.708 3.75 275.5 4.25C277.292 4.75 278.812 5.52083 280.062 6.5625C281.312 7.58333 282.271 8.875 282.938 10.4375C283.604 11.9792 283.938 13.8125 283.938 15.9375C283.938 17.8125 283.562 19.5417 282.812 21.125C282.062 22.7083 280.885 24.0104 279.281 25.0312C277.677 26.0312 275.604 26.5833 273.062 26.6875L270.781 29.1562ZM270.438 49H258.844L262.5 41.4375H270.438C271.667 41.4375 272.646 41.1771 273.375 40.6562C274.104 40.1354 274.635 39.4375 274.969 38.5625C275.323 37.6667 275.5 36.6458 275.5 35.5C275.5 34.2083 275.344 33.0833 275.031 32.125C274.74 31.1667 274.25 30.4375 273.562 29.9375C272.875 29.4167 271.948 29.1562 270.781 29.1562H262.906L262.969 22.5312H272.531L274.688 25.1562C277.125 25.0729 279.073 25.5417 280.531 26.5625C281.99 27.5625 283.031 28.875 283.656 30.5C284.302 32.1042 284.625 33.8125 284.625 35.625C284.625 38.5417 284.073 41 282.969 43C281.885 44.9792 280.292 46.4792 278.188 47.5C276.083 48.5 273.5 49 270.438 49ZM302.688 32.4062L311.438 3.5H321.25L308.75 40.0938C308.25 41.3646 307.698 42.5833 307.094 43.75C306.51 44.8958 305.812 45.9167 305 46.8125C304.188 47.7083 303.208 48.4062 302.062 48.9062C300.917 49.4062 299.552 49.6562 297.969 49.6562C297.594 49.6562 297.115 49.6458 296.531 49.625C295.969 49.6042 295.51 49.5833 295.156 49.5625L295 41.9688C295.208 42.0104 295.552 42.0417 296.031 42.0625C296.51 42.0833 296.844 42.0938 297.031 42.0938C298.01 42.0938 298.75 41.9271 299.25 41.5938C299.771 41.2396 300.167 40.7396 300.438 40.0938C300.729 39.4479 300.979 38.6875 301.188 37.8125L302.688 32.4062ZM298.438 3.5L305.844 25.4688L308.594 36.3125L301.812 36.4062L288.656 3.5H298.438ZM341.531 29.1562H332.188L332.156 22.5312H340.094C341.344 22.5312 342.365 22.3229 343.156 21.9062C343.969 21.4688 344.562 20.8333 344.938 20C345.333 19.1458 345.531 18.1146 345.531 16.9062C345.531 15.5104 345.344 14.3958 344.969 13.5625C344.615 12.7083 344.042 12.0833 343.25 11.6875C342.479 11.2917 341.458 11.0938 340.188 11.0938H335.312V49H326.156V3.5H340.188C342.438 3.5 344.458 3.75 346.25 4.25C348.042 4.75 349.562 5.52083 350.812 6.5625C352.062 7.58333 353.021 8.875 353.688 10.4375C354.354 11.9792 354.688 13.8125 354.688 15.9375C354.688 17.8125 354.312 19.5417 353.562 21.125C352.812 22.7083 351.635 24.0104 350.031 25.0312C348.427 26.0312 346.354 26.5833 343.812 26.6875L341.531 29.1562ZM341.188 49H329.594L333.25 41.4375H341.188C342.417 41.4375 343.396 41.1771 344.125 40.6562C344.854 40.1354 345.385 39.4375 345.719 38.5625C346.073 37.6667 346.25 36.6458 346.25 35.5C346.25 34.2083 346.094 33.0833 345.781 32.125C345.49 31.1667 345 30.4375 344.312 29.9375C343.625 29.4167 342.698 29.1562 341.531 29.1562H333.656L333.719 22.5312H343.281L345.438 25.1562C347.875 25.0729 349.823 25.5417 351.281 26.5625C352.74 27.5625 353.781 28.875 354.406 30.5C355.052 32.1042 355.375 33.8125 355.375 35.625C355.375 38.5417 354.823 41 353.719 43C352.635 44.9792 351.042 46.4792 348.938 47.5C346.833 48.5 344.25 49 341.188 49ZM378.562 11.625L368.781 49H359.125L373.344 3.5H379.375L378.562 11.625ZM386.281 49L376.438 11.625L375.531 3.5H381.656L396 49H386.281ZM386.625 32.0312V39.625H366.094V32.0312H386.625ZM425.562 21.9375V29.5H406.906V21.9375H425.562ZM409.5 3.5V49H400.344V3.5H409.5ZM432.188 3.5V49H423.125V3.5H432.188ZM464.875 21.9375V29.5H446.219V21.9375H464.875ZM448.812 3.5V49H439.656V3.5H448.812ZM471.5 3.5V49H462.438V3.5H471.5ZM499 32.5938H489.719L486.562 31.2812C483.479 30.1146 481.115 28.4062 479.469 26.1562C477.823 23.9062 477 21.0208 477 17.5C477 14.4583 477.583 11.8958 478.75 9.8125C479.917 7.72917 481.583 6.15625 483.75 5.09375C485.917 4.03125 488.479 3.5 491.438 3.5H505.188V49H496.031V11.0938H491.438C489.583 11.0938 488.229 11.7188 487.375 12.9688C486.521 14.1979 486.094 15.9583 486.094 18.25C486.094 19.9375 486.302 21.3125 486.719 22.375C487.135 23.4375 487.75 24.2292 488.562 24.75C489.396 25.25 490.458 25.5 491.75 25.5H498.969L499 32.5938ZM492.719 28.75L484.375 49H474.531L482.875 28.75H492.719Z"/>
</mask>
<path d="M33.75 38.75L31.8494 38.1274L31.8461 38.1374L33.75 38.75ZM30.4375 44.7812L28.9395 43.4561L28.9384 43.4574L30.4375 44.7812ZM25.2812 48.4062L24.5352 46.5506L24.5285 46.5533L25.2812 48.4062ZM11.9375 48.4062L11.1847 50.2592L11.1914 50.2619L11.9375 48.4062ZM6.75 44.7812L5.25201 46.1064L5.26099 46.1166L5.27012 46.1266L6.75 44.7812ZM3.40625 38.75L1.50563 39.3726L1.50724 39.3775L3.40625 38.75ZM3.375 14.0938L5.28339 14.6921L5.28481 14.6876L3.375 14.0938ZM6.71875 7.90625L8.21569 9.23265L8.2239 9.22326L6.71875 7.90625ZM11.9062 4.15625L12.6755 6.0024L12.6836 5.999L12.6918 5.99553L11.9062 4.15625ZM25.2188 4.15625L24.4332 5.99553L24.4414 5.999L24.4495 6.0024L25.2188 4.15625ZM30.4062 7.90625L28.9011 9.22328L28.9093 9.23262L30.4062 7.90625ZM33.75 14.0938L31.8402 14.6876L31.8432 14.6972L31.8463 14.7068L33.75 14.0938ZM25.375 17.125L23.4149 17.5223L23.4159 17.5275L25.375 17.125ZM15.4062 11.1875L14.5118 9.39865L14.5035 9.40279L14.4953 9.407L15.4062 11.1875ZM13.125 13.3438L11.4392 12.2677L11.4309 12.2805L11.4229 12.2935L13.125 13.3438ZM11.75 17.125L9.78986 16.7277L9.78778 16.738L9.7858 16.7483L11.75 17.125ZM15.4688 41.375L14.5578 43.1555L14.5824 43.1681L14.6073 43.18L15.4688 41.375ZM21.7188 41.375L22.5964 43.1721L22.6048 43.168L22.6132 43.1639L21.7188 41.375ZM32.9375 22.7188V30.3125H36.9375V22.7188H32.9375ZM32.9375 30.3125C32.9375 33.3621 32.5606 35.9563 31.8494 38.1274L35.6506 39.3726C36.5227 36.7103 36.9375 33.6796 36.9375 30.3125H32.9375ZM31.8461 38.1374C31.1465 40.312 30.167 42.0685 28.9395 43.4561L31.9355 46.1064C33.583 44.244 34.8119 41.9797 35.6539 39.3626L31.8461 38.1374ZM28.9384 43.4574C27.7317 44.8238 26.2723 45.8522 24.5352 46.5506L26.0273 50.2619C28.3318 49.3353 30.31 47.947 31.9366 46.1051L28.9384 43.4574ZM24.5285 46.5533C22.7965 47.2569 20.8376 47.625 18.625 47.625V51.625C21.2874 51.625 23.766 51.1806 26.034 50.2592L24.5285 46.5533ZM18.625 47.625C16.4128 47.625 14.4406 47.257 12.6836 46.5506L11.1914 50.2619C13.4761 51.1805 15.9622 51.625 18.625 51.625V47.625ZM12.6903 46.5533C10.9688 45.854 9.48777 44.8196 8.22988 43.4359L5.27012 46.1266C6.9289 47.9513 8.90621 49.3335 11.1847 50.2592L12.6903 46.5533ZM8.24799 43.4561C7.01691 42.0644 6.02562 40.3025 5.30526 38.1225L1.50724 39.3775C2.37022 41.9891 3.60809 44.2481 5.25201 46.1064L8.24799 43.4561ZM5.30687 38.1274C4.59566 35.9563 4.21875 33.3621 4.21875 30.3125H0.21875C0.21875 33.6796 0.633505 36.7103 1.50563 39.3726L5.30687 38.1274ZM4.21875 30.3125V22.7188H0.21875V30.3125H4.21875ZM4.21875 22.7188C4.21875 19.5766 4.58742 16.9117 5.28338 14.6921L1.46662 13.4954C0.620916 16.1925 0.21875 19.2775 0.21875 22.7188H4.21875ZM5.28481 14.6876C5.98651 12.4308 6.97621 10.6314 8.21566 9.23262L5.22184 6.57988C3.54463 8.47273 2.30516 10.7984 1.46519 13.4999L5.28481 14.6876ZM8.2239 9.22326C9.48527 7.78169 10.9645 6.71533 12.6755 6.0024L11.137 2.3101C8.84805 3.26383 6.86889 4.69747 5.2136 6.58924L8.2239 9.22326ZM12.6918 5.99553C14.4151 5.25952 16.3624 4.875 18.5625 4.875V0.875C15.8876 0.875 13.3974 1.34465 11.1207 2.31697L12.6918 5.99553ZM18.5625 4.875C20.7626 4.875 22.7099 5.25952 24.4332 5.99553L26.0043 2.31697C23.7276 1.34465 21.2374 0.875 18.5625 0.875V4.875ZM24.4495 6.0024C26.1605 6.71533 27.6397 7.78169 28.9011 9.22326L31.9114 6.58924C30.2561 4.69747 28.277 3.26383 25.988 2.3101L24.4495 6.0024ZM28.9093 9.23262C30.1488 10.6314 31.1385 12.4308 31.8402 14.6876L35.6598 13.4999C34.8198 10.7984 33.5804 8.47273 31.9032 6.57988L28.9093 9.23262ZM31.8463 14.7068C32.5594 16.9213 32.9375 19.581 32.9375 22.7188H36.9375C36.9375 19.2732 36.5239 16.1829 35.6537 13.4807L31.8463 14.7068ZM27.8438 30.3125V22.6562H23.8438V30.3125H27.8438ZM27.8438 22.6562C27.8438 20.4031 27.6821 18.4162 27.3341 16.7225L23.4159 17.5275C23.6929 18.8755 23.8438 20.5761 23.8438 22.6562H27.8438ZM27.3351 16.7277C26.99 15.0248 26.4498 13.5135 25.6546 12.2677L22.2829 14.4198C22.7377 15.1323 23.135 16.1418 23.4149 17.5223L27.3351 16.7277ZM25.6546 12.2677C24.8684 11.0359 23.8567 10.0507 22.5985 9.407L20.7765 12.968C21.31 13.2409 21.8191 13.6932 22.2829 14.4198L25.6546 12.2677ZM22.5985 9.407C21.374 8.78056 20.0099 8.5 18.5625 8.5V12.5C19.4901 12.5 20.2093 12.6778 20.7765 12.968L22.5985 9.407ZM18.5625 8.5C17.1138 8.5 15.7472 8.78098 14.5118 9.39865L16.3007 12.9764C16.8987 12.6774 17.6362 12.5 18.5625 12.5V8.5ZM14.4953 9.407C13.2371 10.0507 12.2254 11.0359 11.4392 12.2677L14.8108 14.4198C15.2746 13.6932 15.7837 13.2409 16.3172 12.968L14.4953 9.407ZM11.4229 12.2935C10.6586 13.5322 10.1332 15.0339 9.78986 16.7277L13.7101 17.5223C13.9918 16.1327 14.383 15.1136 14.8271 14.394L11.4229 12.2935ZM9.7858 16.7483C9.46301 18.4314 9.3125 20.409 9.3125 22.6562H13.3125C13.3125 20.5701 13.4537 18.8603 13.7142 17.5017L9.7858 16.7483ZM9.3125 22.6562V30.3125H13.3125V22.6562H9.3125ZM9.3125 30.3125C9.3125 32.4867 9.47475 34.4145 9.82444 36.0697L13.7381 35.2428C13.4627 33.9397 13.3125 32.305 13.3125 30.3125H9.3125ZM9.82444 36.0697C10.1726 37.7174 10.7184 39.1831 11.5234 40.3907L14.8516 38.1718C14.4066 37.5044 14.0149 36.5535 13.7381 35.2428L9.82444 36.0697ZM11.5234 40.3907C12.3149 41.5778 13.3226 42.5235 14.5578 43.1555L16.3797 39.5945C15.8232 39.3098 15.3101 38.8597 14.8516 38.1718L11.5234 40.3907ZM14.6073 43.18C15.8348 43.7658 17.1895 44.0312 18.625 44.0312V40.0312C17.6855 40.0312 16.936 39.8592 16.3302 39.57L14.6073 43.18ZM18.625 44.0312C20.0443 44.0312 21.3844 43.764 22.5964 43.1721L20.8411 39.5779C20.2614 39.861 19.539 40.0312 18.625 40.0312V44.0312ZM22.6132 43.1639C23.8786 42.5311 24.9004 41.5761 25.6811 40.3647L22.3189 38.1978C21.8912 38.8614 21.3922 39.3022 20.8243 39.5861L22.6132 43.1639ZM25.6811 40.3647C26.455 39.1639 26.9857 37.7078 27.3318 36.0697L23.4182 35.2428C23.1393 36.563 22.7534 37.5236 22.3189 38.1978L25.6811 40.3647ZM27.3318 36.0697C27.6815 34.4145 27.8438 32.4867 27.8438 30.3125H23.8438C23.8438 32.305 23.6935 33.9397 23.4182 35.2428L27.3318 36.0697ZM67.0312 3.5H69.0312V1.5H67.0312V3.5ZM67.0312 11.0938V13.0938H69.0312V11.0938H67.0312ZM50.6875 11.0938V9.09375H48.6875V11.0938H50.6875ZM50.6875 49V51H52.6875V49H50.6875ZM41.5625 49H39.5625V51H41.5625V49ZM41.5625 3.5V1.5H39.5625V3.5H41.5625ZM47.7188 19.875V17.875H45.7188V19.875H47.7188ZM69.4375 26.6875L67.6908 27.6616L67.6943 27.668L67.6979 27.6744L69.4375 26.6875ZM70.2188 40.25L68.3588 39.5147L68.3551 39.5241L68.3515 39.5335L70.2188 40.25ZM67.2188 44.9062L65.8045 43.492L65.7989 43.4977L65.7933 43.5034L67.2188 44.9062ZM62.5312 47.9375L61.8104 46.0719L61.8033 46.0747L62.5312 47.9375ZM41.5625 49H39.5625V51H41.5625V49ZM41.5625 3.5V1.5H39.5625V3.5H41.5625ZM50.7188 3.5H52.7188V1.5H50.7188V3.5ZM50.7188 41.4375H48.7188V43.4375H50.7188V41.4375ZM59.5625 40.4688L60.7877 42.0496L60.793 42.0454L59.5625 40.4688ZM61.5 37.8438L63.3545 38.5927L63.3594 38.5805L61.5 37.8438ZM59.5625 28.375L58.3886 29.9942L58.4113 30.0107L58.4346 30.0266L59.5625 28.375ZM47.7188 27.4688H45.7188V29.4688H47.7188V27.4688ZM65.0312 3.5V11.0938H69.0312V3.5H65.0312ZM67.0312 9.09375H50.6875V13.0938H67.0312V9.09375ZM48.6875 11.0938V49H52.6875V11.0938H48.6875ZM50.6875 47H41.5625V51H50.6875V47ZM43.5625 49V3.5H39.5625V49H43.5625ZM41.5625 5.5H67.0312V1.5H41.5625V5.5ZM47.7188 21.875H56.375V17.875H47.7188V21.875ZM56.375 21.875C59.1553 21.875 61.4547 22.4166 63.3409 23.4214L65.2216 19.8911C62.6494 18.5209 59.6781 17.875 56.375 17.875V21.875ZM63.3409 23.4214C65.2374 24.4317 66.6732 25.837 67.6908 27.6616L71.1842 25.7134C69.7851 23.2046 67.7835 21.2558 65.2216 19.8911L63.3409 23.4214ZM67.6979 27.6744C68.7304 29.4944 69.2812 31.6746 69.2812 34.2812H73.2812C73.2812 31.0962 72.6029 28.214 71.1771 25.7006L67.6979 27.6744ZM69.2812 34.2812C69.2812 36.2508 68.9629 37.9866 68.3588 39.5147L72.0787 40.9853C72.8912 38.93 73.2812 36.6867 73.2812 34.2812H69.2812ZM68.3515 39.5335C67.761 41.0725 66.912 42.3846 65.8045 43.492L68.633 46.3205C70.1505 44.8029 71.3015 43.0108 72.086 40.9665L68.3515 39.5335ZM65.7933 43.5034C64.7142 44.5999 63.3968 45.459 61.8105 46.0719L63.252 49.8031C65.3323 48.9993 67.14 47.8376 68.6442 46.3091L65.7933 43.5034ZM61.8033 46.0747C60.26 46.6778 58.461 47 56.375 47V51C58.8723 51 61.1775 50.6139 63.2592 49.8003L61.8033 46.0747ZM56.375 47H41.5625V51H56.375V47ZM43.5625 49V3.5H39.5625V49H43.5625ZM41.5625 5.5H50.7188V1.5H41.5625V5.5ZM48.7188 3.5V41.4375H52.7188V3.5H48.7188ZM50.7188 43.4375H56.375V39.4375H50.7188V43.4375ZM56.375 43.4375C58.0078 43.4375 59.5305 43.0238 60.7876 42.0496L58.3374 38.8879C57.9278 39.2053 57.3255 39.4375 56.375 39.4375V43.4375ZM60.793 42.0454C61.9459 41.1456 62.796 39.9756 63.3545 38.5927L59.6455 37.0948C59.329 37.8786 58.8874 38.4586 58.332 38.8921L60.793 42.0454ZM63.3594 38.5805C63.8991 37.2184 64.1562 35.757 64.1562 34.2188H60.1562C60.1562 35.3055 59.9759 36.2608 59.6406 37.107L63.3594 38.5805ZM64.1562 34.2188C64.1562 32.7159 63.8968 31.2966 63.3383 29.9934L59.6617 31.5691C59.9782 32.3076 60.1562 33.1799 60.1562 34.2188H64.1562ZM63.3383 29.9934C62.7625 28.6499 61.882 27.5372 60.6904 26.7234L58.4346 30.0266C58.9513 30.3795 59.3625 30.871 59.6617 31.5691L63.3383 29.9934ZM60.7364 26.7558C59.4832 25.8472 57.9798 25.4688 56.375 25.4688V29.4688C57.3535 29.4688 57.9751 29.6944 58.3886 29.9942L60.7364 26.7558ZM56.375 25.4688H47.7188V29.4688H56.375V25.4688ZM49.7188 27.4688V19.875H45.7188V27.4688H49.7188ZM98.2188 33.8438V31.8438H96.2751L96.2196 33.7866L98.2188 33.8438ZM107.312 33.8438L109.311 33.9169L109.387 31.8438H107.312V33.8438ZM105.25 42.5L107.013 43.4444L107.016 43.4379L105.25 42.5ZM99.9062 47.8125L98.98 46.0399L98.9734 46.0434L99.9062 47.8125ZM84.875 48.375L84.0754 50.2082L84.0836 50.2118L84.0919 50.2153L84.875 48.375ZM76.75 38.5312L74.8251 39.0742L74.8279 39.084L74.8307 39.0938L76.75 38.5312ZM76.8125 14L74.9009 13.4118L74.8986 13.4193L74.8964 13.4268L76.8125 14ZM80 7.875L78.4667 6.59086L78.4652 6.59272L80 7.875ZM85.0312 4.125L85.8144 5.96533L85.8238 5.96128L85.0312 4.125ZM105.188 10.1875L103.402 11.0881L103.406 11.0975L103.411 11.1068L105.188 10.1875ZM107.406 18.9062V20.9062H109.557L109.401 18.7612L107.406 18.9062ZM98.25 18.9062L96.2504 18.9447L96.2881 20.9062H98.25V18.9062ZM97.5312 13.8125L95.6339 14.445L95.6403 14.4641L95.647 14.4831L97.5312 13.8125ZM95.5312 11.1875L94.5432 12.9264L94.5583 12.935L94.5735 12.9433L95.5312 11.1875ZM88.5938 11.0625L89.4536 12.8682L89.471 12.86L89.4882 12.8514L88.5938 11.0625ZM85.1875 16.7812L83.2185 16.4306L83.2161 16.4437L83.214 16.4568L85.1875 16.7812ZM85.1562 35.625L83.1786 35.923L83.1792 35.9271L85.1562 35.625ZM88.2812 41.4062L87.3695 43.1863L87.3781 43.1908L87.3868 43.1951L88.2812 41.4062ZM95.3125 41.375L94.4496 39.5707L94.4418 39.5744L94.4341 39.5782L95.3125 41.375ZM98.2188 35.8438H107.312V31.8438H98.2188V35.8438ZM105.314 33.7706C105.197 36.9677 104.558 39.5394 103.484 41.5621L107.016 43.4379C108.442 40.7523 109.178 37.5531 109.311 33.9169L105.314 33.7706ZM103.487 41.5556C102.424 43.5406 100.931 45.0203 98.98 46.0399L100.832 49.5851C103.506 48.1881 105.576 46.126 107.013 43.4444L103.487 41.5556ZM98.9734 46.0434C97.0334 47.0663 94.5997 47.625 91.5938 47.625V51.625C95.0878 51.625 98.1958 50.9754 100.839 49.5816L98.9734 46.0434ZM91.5938 47.625C89.2932 47.625 87.3275 47.2451 85.6581 46.5347L84.0919 50.2153C86.3392 51.1716 88.8526 51.625 91.5938 51.625V47.625ZM85.6746 46.5418C84.0019 45.8122 82.5866 44.7513 81.4098 43.3427L78.3402 45.9073C79.9134 47.7904 81.8314 49.2295 84.0754 50.2082L85.6746 46.5418ZM81.4098 43.3427C80.2391 41.9413 79.3136 40.167 78.6693 37.9687L74.8307 39.0938C75.6031 41.7288 76.7609 44.017 78.3402 45.9073L81.4098 43.3427ZM78.6749 37.9883C78.0478 35.7652 77.7188 33.1518 77.7188 30.125H73.7188C73.7188 33.4315 74.0772 36.4223 74.8251 39.0742L78.6749 37.9883ZM77.7188 30.125V22.4062H73.7188V30.125H77.7188ZM77.7188 22.4062C77.7188 19.3884 78.0667 16.7858 78.7286 14.5732L74.8964 13.4268C74.0999 16.0892 73.7188 19.0908 73.7188 22.4062H77.7188ZM78.7241 14.5882C79.4104 12.3576 80.3593 10.5643 81.5348 9.15728L78.4652 6.59272C76.8907 8.47734 75.7146 10.7674 74.9009 13.4118L78.7241 14.5882ZM81.5333 9.15914C82.731 7.72907 84.1529 6.67232 85.8144 5.96531L84.2481 2.28469C81.993 3.24434 80.0607 4.6876 78.4667 6.59086L81.5333 9.15914ZM85.8238 5.96128C87.5179 5.23014 89.4715 4.84375 91.7188 4.84375V0.84375C89.0077 0.84375 86.503 1.31153 84.2387 2.28872L85.8238 5.96128ZM91.7188 4.84375C94.7875 4.84375 97.1984 5.42322 99.0531 6.46321L101.009 2.97429C98.4058 1.51428 95.275 0.84375 91.7188 0.84375V4.84375ZM99.0531 6.46321C100.917 7.50853 102.363 9.02892 103.402 11.0881L106.973 9.28687C105.595 6.55441 103.604 4.42897 101.009 2.97429L99.0531 6.46321ZM103.411 11.1068C104.486 13.1825 105.176 15.8093 105.412 19.0513L109.401 18.7612C109.137 15.1282 108.348 11.9425 106.964 9.26823L103.411 11.1068ZM107.406 16.9062H98.25V20.9062H107.406V16.9062ZM100.25 18.8678C100.206 16.6082 99.9573 14.6642 99.4155 13.1419L95.647 14.4831C95.9802 15.4191 96.2105 16.8709 96.2504 18.9447L100.25 18.8678ZM99.4286 13.18C98.8956 11.5811 97.9575 10.2327 96.489 9.43171L94.5735 12.9433C94.9384 13.1423 95.3335 13.5439 95.6339 14.445L99.4286 13.18ZM96.5193 9.44859C95.181 8.68821 93.5186 8.40625 91.7188 8.40625V12.4062C93.1689 12.4062 94.0482 12.6451 94.5432 12.9264L96.5193 9.44859ZM91.7188 8.40625C90.2715 8.40625 88.9097 8.66847 87.6993 9.27365L89.4882 12.8514C90.0278 12.5815 90.7493 12.4062 91.7188 12.4062V8.40625ZM87.7339 9.25678C86.4594 9.8637 85.4606 10.8345 84.7225 12.0648L88.1525 14.1227C88.5394 13.478 88.9781 13.0946 89.4536 12.8682L87.7339 9.25678ZM84.7225 12.0648C83.9946 13.278 83.5157 14.7613 83.2185 16.4306L87.1565 17.1319C87.4009 15.7595 87.7554 14.7845 88.1525 14.1227L84.7225 12.0648ZM83.214 16.4568C82.9407 18.119 82.8125 20.0887 82.8125 22.3438H86.8125C86.8125 20.2238 86.9343 18.4851 87.161 17.1057L83.214 16.4568ZM82.8125 22.3438V30.125H86.8125V22.3438H82.8125ZM82.8125 30.125C82.8125 32.3348 82.93 34.2735 83.1786 35.923L87.1339 35.327C86.9241 33.9348 86.8125 32.2069 86.8125 30.125H82.8125ZM83.1792 35.9271C83.4292 37.5637 83.8431 39.023 84.4768 40.2376L88.0232 38.3874C87.6569 37.6853 87.3416 36.6863 87.1333 35.3229L83.1792 35.9271ZM84.4768 40.2376C85.1433 41.515 86.1009 42.5365 87.3695 43.1863L89.193 39.6262C88.7533 39.401 88.3567 39.0267 88.0232 38.3874L84.4768 40.2376ZM87.3868 43.1951C88.6215 43.8125 90.0568 44.0625 91.5938 44.0625V40.0625C90.464 40.0625 89.691 39.875 89.1757 39.6174L87.3868 43.1951ZM91.5938 44.0625C93.3062 44.0625 94.8809 43.8122 96.1909 43.1718L94.4341 39.5782C93.8691 39.8545 92.9646 40.0625 91.5938 40.0625V44.0625ZM96.1754 43.1793C97.6826 42.4584 98.6999 41.1898 99.3033 39.6264L95.5717 38.1861C95.2584 38.9977 94.859 39.3749 94.4496 39.5707L96.1754 43.1793ZM99.3033 39.6264C99.8818 38.1278 100.153 36.1766 100.218 33.9009L96.2196 33.7866C96.1596 35.8859 95.9099 37.3097 95.5717 38.1861L99.3033 39.6264ZM138.25 3.5H140.25V1.5H138.25V3.5ZM138.25 11.0938V13.0938H140.25V11.0938H138.25ZM119.594 11.0938H117.594V13.0938H119.594V11.0938ZM119.594 3.5V1.5H117.594V3.5H119.594ZM144.875 3.5H146.875V1.5H144.875V3.5ZM144.875 49V51H146.875V49H144.875ZM135.781 49H133.781V51H135.781V49ZM135.781 3.5V1.5H133.781V3.5H135.781ZM118.469 3.5V1.5H116.521L116.469 3.44664L118.469 3.5ZM127.531 3.5L129.53 3.57896L129.612 1.5H127.531V3.5ZM126.625 26.4375L124.627 26.3585L124.626 26.3677L124.626 26.3769L126.625 26.4375ZM125.812 35.375L123.842 35.033L123.84 35.0462L125.812 35.375ZM124.125 41.75L122.271 40.9996L122.267 41.0111L124.125 41.75ZM117.875 48.2812L118.533 50.1699L118.541 50.167L118.549 50.1641L117.875 48.2812ZM111.094 49H109.094V51H111.094V49ZM111.094 41.4375L110.853 39.452L109.094 39.6653V41.4375H111.094ZM112.125 41.3125L112.366 43.298L112.379 43.2963L112.125 41.3125ZM114.281 40.5312L115.391 42.1954L115.41 42.1827L115.428 42.1697L114.281 40.5312ZM115.875 38.5938L117.655 39.5055L117.66 39.4969L117.664 39.4882L115.875 38.5938ZM116.938 35.25L114.981 34.835L114.979 34.8464L114.976 34.8578L116.938 35.25ZM117.594 30.25L115.601 30.0804L115.6 30.0909L115.599 30.1015L117.594 30.25ZM117.938 23.4062L115.938 23.3529L115.938 23.3583L117.938 23.4062ZM136.25 3.5V11.0938H140.25V3.5H136.25ZM138.25 9.09375H119.594V13.0938H138.25V9.09375ZM121.594 11.0938V3.5H117.594V11.0938H121.594ZM119.594 5.5H138.25V1.5H119.594V5.5ZM142.875 3.5V49H146.875V3.5H142.875ZM144.875 47H135.781V51H144.875V47ZM137.781 49V3.5H133.781V49H137.781ZM135.781 5.5H144.875V1.5H135.781V5.5ZM118.469 5.5H127.531V1.5H118.469V5.5ZM125.533 3.42104L124.627 26.3585L128.623 26.5165L129.53 3.57896L125.533 3.42104ZM124.626 26.3769C124.524 29.7499 124.259 32.6306 123.842 35.033L127.783 35.717C128.241 33.0777 128.518 30.0001 128.624 26.4981L124.626 26.3769ZM123.84 35.0462C123.439 37.4475 122.909 39.4225 122.271 40.9996L125.979 42.5004C126.757 40.5775 127.352 38.3025 127.785 35.7038L123.84 35.0462ZM122.267 41.0111C121.653 42.5532 120.919 43.7056 120.103 44.5374L122.959 47.3376C124.227 46.0444 125.222 44.4051 125.983 42.4889L122.267 41.0111ZM120.103 44.5374C119.272 45.3849 118.311 46.0007 117.201 46.3984L118.549 50.1641C120.231 49.5618 121.707 48.6151 122.959 47.3376L120.103 44.5374ZM117.217 46.3926C116.087 46.7865 114.772 47 113.25 47V51C115.144 51 116.913 50.7343 118.533 50.1699L117.217 46.3926ZM113.25 47H111.094V51H113.25V47ZM113.094 49V41.4375H109.094V49H113.094ZM111.334 43.423L112.366 43.298L111.884 39.327L110.853 39.452L111.334 43.423ZM112.379 43.2963C113.47 43.1565 114.486 42.7981 115.391 42.1954L113.172 38.8671C112.826 39.0977 112.405 39.2602 111.871 39.3287L112.379 43.2963ZM115.428 42.1697C116.38 41.5031 117.106 40.5766 117.655 39.5055L114.095 37.682C113.769 38.3192 113.432 38.6844 113.134 38.8928L115.428 42.1697ZM117.664 39.4882C118.206 38.4039 118.606 37.1053 118.899 35.6422L114.976 34.8578C114.727 36.1031 114.419 37.0336 114.086 37.6993L117.664 39.4882ZM118.894 35.665C119.21 34.1753 119.438 32.4142 119.588 30.3985L115.599 30.1015C115.458 32.0025 115.248 33.5747 114.981 34.835L118.894 35.665ZM119.587 30.4196C119.758 28.4103 119.874 26.0868 119.937 23.4542L115.938 23.3583C115.876 25.934 115.763 28.1731 115.601 30.0804L119.587 30.4196ZM119.937 23.4596L120.468 3.55336L116.469 3.44664L115.938 23.3529L119.937 23.4596ZM164.125 32.4062L162.211 31.8268L162.204 31.8491L162.198 31.8715L164.125 32.4062ZM172.875 3.5V1.5H171.391L170.961 2.92056L172.875 3.5ZM182.688 3.5L184.58 4.1465L185.484 1.5H182.688V3.5ZM170.188 40.0938L172.049 40.826L172.065 40.7835L172.08 40.7402L170.188 40.0938ZM168.531 43.75L166.755 42.8303L166.749 42.8426L168.531 43.75ZM157.969 49.625L157.895 51.6236L157.897 51.6237L157.969 49.625ZM156.594 49.5625L154.594 49.6036L154.632 51.4506L156.476 51.559L156.594 49.5625ZM156.438 41.9688L156.83 40.0076L154.387 39.519L154.438 42.0099L156.438 41.9688ZM160.688 41.5938L161.797 43.2579L161.805 43.2528L161.812 43.2476L160.688 41.5938ZM161.875 40.0938L160.052 39.2706L160.041 39.2953L160.031 39.3203L161.875 40.0938ZM162.625 37.8125L160.698 37.2778L160.688 37.3134L160.679 37.3493L162.625 37.8125ZM159.875 3.5L161.77 2.86108L161.311 1.5H159.875V3.5ZM167.281 25.4688L169.22 24.9771L169.201 24.9026L169.176 24.8298L167.281 25.4688ZM170.031 36.3125L170.059 38.3123L172.593 38.2773L171.97 35.8209L170.031 36.3125ZM163.25 36.4062L161.393 37.1487L161.903 38.4251L163.278 38.4061L163.25 36.4062ZM150.094 3.5V1.5H147.14L148.237 4.24248L150.094 3.5ZM166.039 32.9857L174.789 4.07944L170.961 2.92056L162.211 31.8268L166.039 32.9857ZM172.875 5.5H182.688V1.5H172.875V5.5ZM180.795 2.8535L168.295 39.4473L172.08 40.7402L184.58 4.1465L180.795 2.8535ZM168.326 39.3615C167.851 40.5709 167.327 41.7269 166.755 42.8303L170.307 44.6697C170.944 43.4397 171.524 42.1582 172.049 40.826L168.326 39.3615ZM166.749 42.8426C166.241 43.8403 165.642 44.7125 164.956 45.4689L167.919 48.1561C168.858 47.1208 169.655 45.9514 170.314 44.6574L166.749 42.8426ZM164.956 45.4689C164.34 46.1481 163.596 46.6824 162.7 47.0732L164.3 50.7393C165.696 50.1301 166.91 49.2686 167.919 48.1561L164.956 45.4689ZM162.7 47.0732C161.864 47.4379 160.785 47.6562 159.406 47.6562V51.6562C161.194 51.6562 162.844 51.3746 164.3 50.7393L162.7 47.0732ZM159.406 47.6562C159.064 47.6562 158.611 47.6467 158.04 47.6263L157.897 51.6237C158.493 51.645 158.998 51.6562 159.406 51.6562V47.6562ZM158.043 47.6264C157.487 47.6058 157.045 47.5856 156.711 47.566L156.476 51.559C156.851 51.5811 157.325 51.6025 157.895 51.6236L158.043 47.6264ZM158.593 49.5214L158.437 41.9276L154.438 42.0099L154.594 49.6036L158.593 49.5214ZM156.045 43.9299C156.417 44.0043 156.895 44.0394 157.382 44.0606L157.556 40.0644C157.336 40.0549 157.164 40.0436 157.033 40.0317C156.968 40.0257 156.918 40.0201 156.881 40.0153C156.843 40.0103 156.828 40.0072 156.83 40.0076L156.045 43.9299ZM157.382 44.0606C157.859 44.0814 158.232 44.0938 158.469 44.0938V40.0938C158.33 40.0938 158.037 40.0853 157.556 40.0644L157.382 44.0606ZM158.469 44.0938C159.617 44.0938 160.821 43.9086 161.797 43.2579L159.578 39.9296C159.579 39.9294 159.562 39.9407 159.519 39.9577C159.477 39.9749 159.412 39.9966 159.318 40.0177C159.127 40.0607 158.851 40.0938 158.469 40.0938V44.0938ZM161.812 43.2476C162.688 42.6519 163.316 41.8286 163.719 40.8672L160.031 39.3203C159.892 39.6506 159.728 39.8273 159.563 39.9399L161.812 43.2476ZM163.698 40.9169C164.053 40.1293 164.34 39.2431 164.571 38.2757L160.679 37.3493C160.493 38.1319 160.28 38.7666 160.052 39.2706L163.698 40.9169ZM164.552 38.3472L166.052 32.941L162.198 31.8715L160.698 37.2778L164.552 38.3472ZM157.98 4.13892L165.386 26.1077L169.176 24.8298L161.77 2.86108L157.98 4.13892ZM165.343 25.9604L168.093 36.8041L171.97 35.8209L169.22 24.9771L165.343 25.9604ZM170.004 34.3127L163.222 34.4064L163.278 38.4061L170.059 38.3123L170.004 34.3127ZM165.107 35.6638L151.951 2.75752L148.237 4.24248L161.393 37.1487L165.107 35.6638ZM150.094 5.5H159.875V1.5H150.094V5.5ZM213.188 3.5H215.188V1.5H213.188V3.5ZM213.188 11.0938V13.0938H215.188V11.0938H213.188ZM196.812 11.0938V9.09375H194.812V11.0938H196.812ZM196.812 49V51H198.812V49H196.812ZM187.688 49H185.688V51H187.688V49ZM187.688 3.5V1.5H185.688V3.5H187.688ZM211.188 3.5V11.0938H215.188V3.5H211.188ZM213.188 9.09375H196.812V13.0938H213.188V9.09375ZM194.812 11.0938V49H198.812V11.0938H194.812ZM196.812 47H187.688V51H196.812V47ZM189.688 49V3.5H185.688V49H189.688ZM187.688 5.5H213.188V1.5H187.688V5.5ZM247.562 38.75L245.662 38.1274L245.659 38.1374L247.562 38.75ZM244.25 44.7812L242.752 43.4561L242.751 43.4574L244.25 44.7812ZM239.094 48.4062L238.348 46.5506L238.341 46.5533L239.094 48.4062ZM225.75 48.4062L224.997 50.2592L225.004 50.2619L225.75 48.4062ZM220.562 44.7812L219.065 46.1064L219.073 46.1166L219.083 46.1266L220.562 44.7812ZM217.219 38.75L215.318 39.3726L215.32 39.3775L217.219 38.75ZM217.188 14.0938L219.096 14.6921L219.097 14.6876L217.188 14.0938ZM220.531 7.90625L222.028 9.23265L222.036 9.22326L220.531 7.90625ZM225.719 4.15625L226.488 6.0024L226.496 5.999L226.504 5.99553L225.719 4.15625ZM239.031 4.15625L238.246 5.99553L238.254 5.999L238.262 6.0024L239.031 4.15625ZM244.219 7.90625L242.714 9.22328L242.722 9.23262L244.219 7.90625ZM247.562 14.0938L245.653 14.6876L245.656 14.6972L245.659 14.7068L247.562 14.0938ZM239.188 17.125L237.227 17.5223L237.228 17.5275L239.188 17.125ZM229.219 11.1875L228.324 9.39865L228.316 9.40279L228.308 9.407L229.219 11.1875ZM226.938 13.3438L225.252 12.2677L225.243 12.2805L225.235 12.2935L226.938 13.3438ZM225.562 17.125L223.602 16.7277L223.6 16.738L223.598 16.7483L225.562 17.125ZM229.281 41.375L228.37 43.1555L228.395 43.1681L228.42 43.18L229.281 41.375ZM235.531 41.375L236.409 43.1721L236.417 43.168L236.426 43.1639L235.531 41.375ZM246.75 22.7188V30.3125H250.75V22.7188H246.75ZM246.75 30.3125C246.75 33.3621 246.373 35.9563 245.662 38.1274L249.463 39.3726C250.335 36.7103 250.75 33.6796 250.75 30.3125H246.75ZM245.659 38.1374C244.959 40.312 243.979 42.0685 242.752 43.4561L245.748 46.1064C247.396 44.244 248.624 41.9797 249.466 39.3626L245.659 38.1374ZM242.751 43.4574C241.544 44.8238 240.085 45.8522 238.348 46.5506L239.84 50.2619C242.144 49.3353 244.123 47.947 245.749 46.1051L242.751 43.4574ZM238.341 46.5533C236.609 47.2569 234.65 47.625 232.438 47.625V51.625C235.1 51.625 237.579 51.1806 239.847 50.2592L238.341 46.5533ZM232.438 47.625C230.225 47.625 228.253 47.257 226.496 46.5506L225.004 50.2619C227.289 51.1805 229.775 51.625 232.438 51.625V47.625ZM226.503 46.5533C224.781 45.854 223.3 44.8196 222.042 43.4359L219.083 46.1266C220.741 47.9513 222.719 49.3335 224.997 50.2592L226.503 46.5533ZM222.06 43.4561C220.829 42.0644 219.838 40.3025 219.118 38.1225L215.32 39.3775C216.183 41.9891 217.421 44.2481 219.065 46.1064L222.06 43.4561ZM219.119 38.1274C218.408 35.9563 218.031 33.3621 218.031 30.3125H214.031C214.031 33.6796 214.446 36.7103 215.318 39.3726L219.119 38.1274ZM218.031 30.3125V22.7188H214.031V30.3125H218.031ZM218.031 22.7188C218.031 19.5766 218.4 16.9117 219.096 14.6921L215.279 13.4954C214.433 16.1925 214.031 19.2775 214.031 22.7188H218.031ZM219.097 14.6876C219.799 12.4308 220.789 10.6314 222.028 9.23262L219.034 6.57988C217.357 8.47273 216.118 10.7984 215.278 13.4999L219.097 14.6876ZM222.036 9.22326C223.298 7.78169 224.777 6.71533 226.488 6.0024L224.95 2.3101C222.661 3.26383 220.681 4.69747 219.026 6.58924L222.036 9.22326ZM226.504 5.99553C228.228 5.25952 230.175 4.875 232.375 4.875V0.875C229.7 0.875 227.21 1.34465 224.933 2.31697L226.504 5.99553ZM232.375 4.875C234.575 4.875 236.522 5.25952 238.246 5.99553L239.817 2.31697C237.54 1.34465 235.05 0.875 232.375 0.875V4.875ZM238.262 6.0024C239.973 6.71533 241.452 7.78169 242.714 9.22326L245.724 6.58924C244.069 4.69747 242.089 3.26383 239.8 2.3101L238.262 6.0024ZM242.722 9.23262C243.961 10.6314 244.951 12.4308 245.653 14.6876L249.472 13.4999C248.632 10.7984 247.393 8.47273 245.716 6.57988L242.722 9.23262ZM245.659 14.7068C246.372 16.9213 246.75 19.581 246.75 22.7188H250.75C250.75 19.2732 250.336 16.1829 249.466 13.4807L245.659 14.7068ZM241.656 30.3125V22.6562H237.656V30.3125H241.656ZM241.656 22.6562C241.656 20.4031 241.495 18.4162 241.147 16.7225L237.228 17.5275C237.505 18.8755 237.656 20.5761 237.656 22.6562H241.656ZM241.148 16.7277C240.802 15.0248 240.262 13.5135 239.467 12.2677L236.095 14.4198C236.55 15.1323 236.948 16.1418 237.227 17.5223L241.148 16.7277ZM239.467 12.2677C238.681 11.0359 237.669 10.0507 236.411 9.407L234.589 12.968C235.123 13.2409 235.632 13.6932 236.095 14.4198L239.467 12.2677ZM236.411 9.407C235.187 8.78056 233.822 8.5 232.375 8.5V12.5C233.303 12.5 234.022 12.6778 234.589 12.968L236.411 9.407ZM232.375 8.5C230.926 8.5 229.56 8.78098 228.324 9.39865L230.113 12.9764C230.711 12.6774 231.449 12.5 232.375 12.5V8.5ZM228.308 9.407C227.05 10.0507 226.038 11.0359 225.252 12.2677L228.623 14.4198C229.087 13.6932 229.596 13.2409 230.13 12.968L228.308 9.407ZM225.235 12.2935C224.471 13.5322 223.946 15.0339 223.602 16.7277L227.523 17.5223C227.804 16.1327 228.196 15.1136 228.64 14.394L225.235 12.2935ZM223.598 16.7483C223.276 18.4314 223.125 20.409 223.125 22.6562H227.125C227.125 20.5701 227.266 18.8603 227.527 17.5017L223.598 16.7483ZM223.125 22.6562V30.3125H227.125V22.6562H223.125ZM223.125 30.3125C223.125 32.4867 223.287 34.4145 223.637 36.0697L227.551 35.2428C227.275 33.9397 227.125 32.305 227.125 30.3125H223.125ZM223.637 36.0697C223.985 37.7174 224.531 39.1831 225.336 40.3907L228.664 38.1718C228.219 37.5044 227.827 36.5535 227.551 35.2428L223.637 36.0697ZM225.336 40.3907C226.127 41.5778 227.135 42.5235 228.37 43.1555L230.192 39.5945C229.636 39.3098 229.123 38.8597 228.664 38.1718L225.336 40.3907ZM228.42 43.18C229.647 43.7658 231.002 44.0312 232.438 44.0312V40.0312C231.498 40.0312 230.748 39.8592 230.143 39.57L228.42 43.18ZM232.438 44.0312C233.857 44.0312 235.197 43.764 236.409 43.1721L234.654 39.5779C234.074 39.861 233.352 40.0312 232.438 40.0312V44.0312ZM236.426 43.1639C237.691 42.5311 238.713 41.5761 239.494 40.3647L236.131 38.1978C235.704 38.8614 235.205 39.3022 234.637 39.5861L236.426 43.1639ZM239.494 40.3647C240.267 39.1639 240.798 37.7078 241.144 36.0697L237.231 35.2428C236.952 36.563 236.566 37.5236 236.131 38.1978L239.494 40.3647ZM241.144 36.0697C241.494 34.4145 241.656 32.4867 241.656 30.3125H237.656C237.656 32.305 237.506 33.9397 237.231 35.2428L241.144 36.0697ZM270.781 29.1562V31.1562H271.656L272.25 30.5136L270.781 29.1562ZM261.438 29.1562L259.438 29.1657L259.447 31.1562H261.438V29.1562ZM261.406 22.5312V20.5312H259.397L259.406 22.5407L261.406 22.5312ZM272.406 21.9062L273.338 23.6761L273.346 23.6717L273.354 23.6672L272.406 21.9062ZM274.188 20L272.373 19.1591L272.368 19.1691L272.364 19.1793L274.188 20ZM274.219 13.5625L272.371 14.3285L272.383 14.3561L272.395 14.3832L274.219 13.5625ZM272.5 11.6875L271.586 13.4666L271.596 13.4715L271.606 13.4764L272.5 11.6875ZM264.562 11.0938V9.09375H262.562V11.0938H264.562ZM264.562 49V51H266.562V49H264.562ZM255.406 49H253.406V51H255.406V49ZM255.406 3.5V1.5H253.406V3.5H255.406ZM280.062 6.5625L278.782 8.09894L278.79 8.10529L278.797 8.11156L280.062 6.5625ZM282.938 10.4375L281.098 11.2224L281.102 11.2313L282.938 10.4375ZM279.281 25.0312L280.339 26.7285L280.347 26.7236L280.355 26.7186L279.281 25.0312ZM273.062 26.6875L272.981 24.6892L272.155 24.723L271.594 25.3302L273.062 26.6875ZM258.844 49L257.043 48.1295L255.655 51H258.844V49ZM262.5 41.4375V39.4375H261.245L260.699 40.567L262.5 41.4375ZM273.375 40.6562L274.537 42.2837L273.375 40.6562ZM274.969 38.5625L273.109 37.8272L273.104 37.8388L273.1 37.8505L274.969 38.5625ZM275.031 32.125L273.118 32.7073L273.124 32.7262L273.13 32.745L275.031 32.125ZM273.562 29.9375L272.355 31.5317L272.37 31.5435L272.386 31.555L273.562 29.9375ZM262.906 29.1562L260.906 29.1374L260.887 31.1562H262.906V29.1562ZM262.969 22.5312V20.5312H260.988L260.969 22.5124L262.969 22.5312ZM272.531 22.5312L274.077 21.2618L273.477 20.5312H272.531V22.5312ZM274.688 25.1562L273.142 26.4257L273.769 27.1888L274.756 27.1551L274.688 25.1562ZM280.531 26.5625L279.384 28.201L279.392 28.2065L279.4 28.212L280.531 26.5625ZM283.656 30.5L281.79 31.218L281.795 31.2325L281.801 31.2469L283.656 30.5ZM282.969 43L281.218 42.0334L281.214 42.0397L282.969 43ZM278.188 47.5L279.046 49.3064L279.053 49.3029L279.06 49.2994L278.188 47.5ZM270.781 27.1562H261.438V31.1562H270.781V27.1562ZM263.437 29.1468L263.406 22.5218L259.406 22.5407L259.438 29.1657L263.437 29.1468ZM261.406 24.5312H269.344V20.5312H261.406V24.5312ZM269.344 24.5312C270.797 24.5312 272.168 24.2919 273.338 23.6761L271.475 20.1364C271.062 20.3539 270.391 20.5312 269.344 20.5312V24.5312ZM273.354 23.6672C274.55 23.0233 275.454 22.0595 276.011 20.8207L272.364 19.1793C272.171 19.6072 271.887 19.9142 271.458 20.1453L273.354 23.6672ZM276.002 20.8409C276.55 19.6597 276.781 18.3257 276.781 16.9062H272.781C272.781 17.9035 272.617 18.632 272.373 19.1591L276.002 20.8409ZM276.781 16.9062C276.781 15.3622 276.579 13.9328 276.043 12.7418L272.395 14.3832C272.609 14.8588 272.781 15.6586 272.781 16.9062H276.781ZM276.066 12.7965C275.537 11.5195 274.637 10.5199 273.394 9.89865L271.606 13.4764C271.946 13.6467 272.192 13.8972 272.371 14.3285L276.066 12.7965ZM273.414 9.90837C272.259 9.31554 270.889 9.09375 269.438 9.09375V13.0938C270.528 13.0938 271.199 13.2678 271.586 13.4666L273.414 9.90837ZM269.438 9.09375H264.562V13.0938H269.438V9.09375ZM262.562 11.0938V49H266.562V11.0938H262.562ZM264.562 47H255.406V51H264.562V47ZM257.406 49V3.5H253.406V49H257.406ZM255.406 5.5H269.438V1.5H255.406V5.5ZM269.438 5.5C271.542 5.5 273.378 5.73419 274.962 6.17639L276.038 2.32361C274.039 1.76581 271.833 1.5 269.438 1.5V5.5ZM274.962 6.17639C276.521 6.61124 277.778 7.26249 278.782 8.09894L281.343 5.02606C279.847 3.77918 278.063 2.88876 276.038 2.32361L274.962 6.17639ZM278.797 8.11156C279.784 8.91704 280.551 9.94116 281.098 11.2224L284.777 9.65262C283.99 7.80884 282.841 6.24963 281.328 5.01344L278.797 8.11156ZM281.102 11.2313C281.635 12.4654 281.938 14.0157 281.938 15.9375H285.938C285.938 13.6093 285.573 11.493 284.773 9.64368L281.102 11.2313ZM281.938 15.9375C281.938 17.5376 281.619 18.9716 281.005 20.2688L284.62 21.9812C285.506 20.1117 285.938 18.0874 285.938 15.9375H281.938ZM281.005 20.2688C280.43 21.4825 279.522 22.5075 278.207 23.3439L280.355 26.7186C282.249 25.5133 283.695 23.9342 284.62 21.9812L281.005 20.2688ZM278.223 23.334C276.997 24.0983 275.291 24.5945 272.981 24.6892L273.144 28.6858C275.917 28.5722 278.357 27.9642 280.339 26.7285L278.223 23.334ZM271.594 25.3302L269.312 27.7989L272.25 30.5136L274.531 28.0448L271.594 25.3302ZM270.438 47H258.844V51H270.438V47ZM260.644 49.8705L264.301 42.308L260.699 40.567L257.043 48.1295L260.644 49.8705ZM262.5 43.4375H270.438V39.4375H262.5V43.4375ZM270.438 43.4375C271.932 43.4375 273.364 43.1221 274.537 42.2837L272.213 39.0288C271.928 39.2321 271.401 39.4375 270.438 39.4375V43.4375ZM274.537 42.2837C275.602 41.5233 276.371 40.5001 276.838 39.2745L273.1 37.8505C272.9 38.3749 272.606 38.7475 272.213 39.0288L274.537 42.2837ZM276.829 39.2978C277.291 38.1281 277.5 36.8509 277.5 35.5H273.5C273.5 36.4408 273.355 37.2053 273.109 37.8272L276.829 39.2978ZM277.5 35.5C277.5 34.0539 277.326 32.7107 276.933 31.505L273.13 32.745C273.362 33.456 273.5 34.3627 273.5 35.5H277.5ZM276.945 31.5427C276.55 30.2452 275.838 29.1193 274.739 28.32L272.386 31.555C272.662 31.7557 272.929 32.0882 273.118 32.7073L276.945 31.5427ZM274.77 28.3433C273.631 27.4801 272.232 27.1562 270.781 27.1562V31.1562C271.664 31.1562 272.119 31.3532 272.355 31.5317L274.77 28.3433ZM270.781 27.1562H262.906V31.1562H270.781V27.1562ZM264.906 29.1751L264.969 22.5501L260.969 22.5124L260.906 29.1374L264.906 29.1751ZM262.969 24.5312H272.531V20.5312H262.969V24.5312ZM270.986 23.8007L273.142 26.4257L276.233 23.8868L274.077 21.2618L270.986 23.8007ZM274.756 27.1551C276.918 27.0812 278.392 27.5063 279.384 28.201L281.678 24.924C279.754 23.577 277.332 23.0647 274.619 23.1574L274.756 27.1551ZM279.4 28.212C280.53 28.9869 281.312 29.977 281.79 31.218L285.523 29.782C284.75 27.773 283.449 26.1381 281.662 24.913L279.4 28.212ZM281.801 31.2469C282.347 32.6023 282.625 34.0559 282.625 35.625H286.625C286.625 33.5691 286.258 31.606 285.512 29.7531L281.801 31.2469ZM282.625 35.625C282.625 38.295 282.119 40.4002 281.218 42.0334L284.72 43.9666C286.026 41.5998 286.625 38.7883 286.625 35.625H282.625ZM281.214 42.0397C280.338 43.6405 279.059 44.854 277.315 45.7006L279.06 49.2994C281.524 48.1043 283.433 46.3179 284.723 43.9603L281.214 42.0397ZM277.329 45.6936C275.564 46.5326 273.292 47 270.438 47V51C273.708 51 276.603 50.4674 279.046 49.3064L277.329 45.6936ZM302.688 32.4062L300.773 31.8268L300.767 31.8491L300.76 31.8715L302.688 32.4062ZM311.438 3.5V1.5H309.953L309.523 2.92056L311.438 3.5ZM321.25 3.5L323.143 4.1465L324.047 1.5H321.25V3.5ZM308.75 40.0938L310.611 40.826L310.628 40.7835L310.643 40.7402L308.75 40.0938ZM307.094 43.75L305.318 42.8303L305.311 42.8426L307.094 43.75ZM296.531 49.625L296.457 51.6236L296.46 51.6237L296.531 49.625ZM295.156 49.5625L293.157 49.6036L293.195 51.4506L295.039 51.559L295.156 49.5625ZM295 41.9688L295.392 40.0076L292.949 39.519L293 42.0099L295 41.9688ZM299.25 41.5938L300.359 43.2579L300.367 43.2528L300.375 43.2476L299.25 41.5938ZM300.438 40.0938L298.615 39.2706L298.604 39.2953L298.593 39.3203L300.438 40.0938ZM301.188 37.8125L299.26 37.2778L299.25 37.3134L299.242 37.3493L301.188 37.8125ZM298.438 3.5L300.333 2.86108L299.874 1.5H298.438V3.5ZM305.844 25.4688L307.782 24.9771L307.763 24.9026L307.739 24.8298L305.844 25.4688ZM308.594 36.3125L308.621 38.3123L311.155 38.2773L310.532 35.8209L308.594 36.3125ZM301.812 36.4062L299.955 37.1487L300.466 38.4251L301.84 38.4061L301.812 36.4062ZM288.656 3.5V1.5H285.703L286.799 4.24248L288.656 3.5ZM304.602 32.9857L313.352 4.07944L309.523 2.92056L300.773 31.8268L304.602 32.9857ZM311.438 5.5H321.25V1.5H311.438V5.5ZM319.357 2.8535L306.857 39.4473L310.643 40.7402L323.143 4.1465L319.357 2.8535ZM306.889 39.3615C306.413 40.5709 305.889 41.7269 305.318 42.8303L308.87 44.6697C309.507 43.4397 310.087 42.1582 310.611 40.826L306.889 39.3615ZM305.311 42.8426C304.804 43.8403 304.205 44.7125 303.519 45.4689L306.481 48.1561C307.42 47.1208 308.217 45.9514 308.876 44.6574L305.311 42.8426ZM303.519 45.4689C302.903 46.1481 302.158 46.6824 301.263 47.0732L302.862 50.7393C304.258 50.1301 305.472 49.2686 306.481 48.1561L303.519 45.4689ZM301.263 47.0732C300.427 47.4379 299.348 47.6562 297.969 47.6562V51.6562C299.757 51.6562 301.407 51.3746 302.862 50.7393L301.263 47.0732ZM297.969 47.6562C297.627 47.6562 297.174 47.6467 296.603 47.6263L296.46 51.6237C297.055 51.645 297.561 51.6562 297.969 51.6562V47.6562ZM296.605 47.6264C296.05 47.6058 295.608 47.5856 295.274 47.566L295.039 51.559C295.413 51.5811 295.888 51.6025 296.457 51.6236L296.605 47.6264ZM297.156 49.5214L297 41.9276L293 42.0099L293.157 49.6036L297.156 49.5214ZM294.608 43.9299C294.98 44.0043 295.457 44.0394 295.944 44.0606L296.118 40.0644C295.899 40.0549 295.726 40.0436 295.595 40.0317C295.53 40.0257 295.48 40.0201 295.444 40.0153C295.406 40.0103 295.39 40.0072 295.392 40.0076L294.608 43.9299ZM295.944 44.0606C296.422 44.0814 296.795 44.0938 297.031 44.0938V40.0938C296.893 40.0938 296.599 40.0853 296.118 40.0644L295.944 44.0606ZM297.031 44.0938C298.18 44.0938 299.383 43.9086 300.359 43.2579L298.141 39.9296C298.141 39.9294 298.124 39.9407 298.082 39.9577C298.039 39.9749 297.974 39.9966 297.881 40.0177C297.69 40.0607 297.413 40.0938 297.031 40.0938V44.0938ZM300.375 43.2476C301.251 42.6519 301.879 41.8286 302.282 40.8672L298.593 39.3203C298.455 39.6506 298.291 39.8273 298.125 39.9399L300.375 43.2476ZM302.26 40.9169C302.616 40.1293 302.903 39.2431 303.133 38.2757L299.242 37.3493C299.056 38.1319 298.842 38.7666 298.615 39.2706L302.26 40.9169ZM303.115 38.3472L304.615 32.941L300.76 31.8715L299.26 37.2778L303.115 38.3472ZM296.542 4.13892L303.949 26.1077L307.739 24.8298L300.333 2.86108L296.542 4.13892ZM303.905 25.9604L306.655 36.8041L310.532 35.8209L307.782 24.9771L303.905 25.9604ZM308.566 34.3127L301.785 34.4064L301.84 38.4061L308.621 38.3123L308.566 34.3127ZM303.67 35.6638L290.513 2.75752L286.799 4.24248L299.955 37.1487L303.67 35.6638ZM288.656 5.5H298.438V1.5H288.656V5.5ZM341.531 29.1562V31.1562H342.406L343 30.5136L341.531 29.1562ZM332.188 29.1562L330.188 29.1657L330.197 31.1562H332.188V29.1562ZM332.156 22.5312V20.5312H330.147L330.156 22.5407L332.156 22.5312ZM343.156 21.9062L344.088 23.6761L344.096 23.6717L344.104 23.6672L343.156 21.9062ZM344.938 20L343.123 19.1591L343.118 19.1691L343.114 19.1793L344.938 20ZM344.969 13.5625L343.121 14.3285L343.133 14.3561L343.145 14.3832L344.969 13.5625ZM343.25 11.6875L342.336 13.4666L342.346 13.4715L342.356 13.4764L343.25 11.6875ZM335.312 11.0938V9.09375H333.312V11.0938H335.312ZM335.312 49V51H337.312V49H335.312ZM326.156 49H324.156V51H326.156V49ZM326.156 3.5V1.5H324.156V3.5H326.156ZM350.812 6.5625L349.532 8.09894L349.54 8.10529L349.547 8.11156L350.812 6.5625ZM353.688 10.4375L351.848 11.2224L351.852 11.2313L353.688 10.4375ZM350.031 25.0312L351.089 26.7285L351.097 26.7236L351.105 26.7186L350.031 25.0312ZM343.812 26.6875L343.731 24.6892L342.905 24.723L342.344 25.3302L343.812 26.6875ZM329.594 49L327.793 48.1295L326.405 51H329.594V49ZM333.25 41.4375V39.4375H331.995L331.449 40.567L333.25 41.4375ZM344.125 40.6562L345.287 42.2837L344.125 40.6562ZM345.719 38.5625L343.859 37.8272L343.854 37.8388L343.85 37.8505L345.719 38.5625ZM345.781 32.125L343.868 32.7073L343.874 32.7262L343.88 32.745L345.781 32.125ZM344.312 29.9375L343.105 31.5317L343.12 31.5435L343.136 31.555L344.312 29.9375ZM333.656 29.1562L331.656 29.1374L331.637 31.1562H333.656V29.1562ZM333.719 22.5312V20.5312H331.738L331.719 22.5124L333.719 22.5312ZM343.281 22.5312L344.827 21.2618L344.227 20.5312H343.281V22.5312ZM345.438 25.1562L343.892 26.4257L344.519 27.1888L345.506 27.1551L345.438 25.1562ZM351.281 26.5625L350.134 28.201L350.142 28.2065L350.15 28.212L351.281 26.5625ZM354.406 30.5L352.54 31.218L352.545 31.2325L352.551 31.2469L354.406 30.5ZM353.719 43L351.968 42.0334L351.964 42.0397L353.719 43ZM348.938 47.5L349.796 49.3064L349.803 49.3029L349.81 49.2994L348.938 47.5ZM341.531 27.1562H332.188V31.1562H341.531V27.1562ZM334.187 29.1468L334.156 22.5218L330.156 22.5407L330.188 29.1657L334.187 29.1468ZM332.156 24.5312H340.094V20.5312H332.156V24.5312ZM340.094 24.5312C341.547 24.5312 342.918 24.2919 344.088 23.6761L342.225 20.1364C341.812 20.3539 341.141 20.5312 340.094 20.5312V24.5312ZM344.104 23.6672C345.3 23.0233 346.204 22.0595 346.761 20.8207L343.114 19.1793C342.921 19.6072 342.637 19.9142 342.208 20.1453L344.104 23.6672ZM346.752 20.8409C347.3 19.6597 347.531 18.3257 347.531 16.9062H343.531C343.531 17.9035 343.367 18.632 343.123 19.1591L346.752 20.8409ZM347.531 16.9062C347.531 15.3622 347.329 13.9328 346.793 12.7418L343.145 14.3832C343.359 14.8588 343.531 15.6586 343.531 16.9062H347.531ZM346.816 12.7965C346.287 11.5195 345.387 10.5199 344.144 9.89865L342.356 13.4764C342.696 13.6467 342.942 13.8972 343.121 14.3285L346.816 12.7965ZM344.164 9.90837C343.009 9.31554 341.639 9.09375 340.188 9.09375V13.0938C341.278 13.0938 341.949 13.2678 342.336 13.4666L344.164 9.90837ZM340.188 9.09375H335.312V13.0938H340.188V9.09375ZM333.312 11.0938V49H337.312V11.0938H333.312ZM335.312 47H326.156V51H335.312V47ZM328.156 49V3.5H324.156V49H328.156ZM326.156 5.5H340.188V1.5H326.156V5.5ZM340.188 5.5C342.292 5.5 344.128 5.73419 345.712 6.17639L346.788 2.32361C344.789 1.76581 342.583 1.5 340.188 1.5V5.5ZM345.712 6.17639C347.271 6.61124 348.528 7.26249 349.532 8.09894L352.093 5.02606C350.597 3.77918 348.813 2.88876 346.788 2.32361L345.712 6.17639ZM349.547 8.11156C350.534 8.91704 351.301 9.94116 351.848 11.2224L355.527 9.65262C354.74 7.80884 353.591 6.24963 352.078 5.01344L349.547 8.11156ZM351.852 11.2313C352.385 12.4654 352.688 14.0157 352.688 15.9375H356.688C356.688 13.6093 356.323 11.493 355.523 9.64368L351.852 11.2313ZM352.688 15.9375C352.688 17.5376 352.369 18.9716 351.755 20.2688L355.37 21.9812C356.256 20.1117 356.688 18.0874 356.688 15.9375H352.688ZM351.755 20.2688C351.18 21.4825 350.272 22.5075 348.957 23.3439L351.105 26.7186C352.999 25.5133 354.445 23.9342 355.37 21.9812L351.755 20.2688ZM348.973 23.334C347.747 24.0983 346.041 24.5945 343.731 24.6892L343.894 28.6858C346.667 28.5722 349.107 27.9642 351.089 26.7285L348.973 23.334ZM342.344 25.3302L340.062 27.7989L343 30.5136L345.281 28.0448L342.344 25.3302ZM341.188 47H329.594V51H341.188V47ZM331.394 49.8705L335.051 42.308L331.449 40.567L327.793 48.1295L331.394 49.8705ZM333.25 43.4375H341.188V39.4375H333.25V43.4375ZM341.188 43.4375C342.682 43.4375 344.114 43.1221 345.287 42.2837L342.963 39.0288C342.678 39.2321 342.151 39.4375 341.188 39.4375V43.4375ZM345.287 42.2837C346.352 41.5233 347.121 40.5001 347.588 39.2745L343.85 37.8505C343.65 38.3749 343.356 38.7475 342.963 39.0288L345.287 42.2837ZM347.579 39.2978C348.041 38.1281 348.25 36.8509 348.25 35.5H344.25C344.25 36.4408 344.105 37.2053 343.859 37.8272L347.579 39.2978ZM348.25 35.5C348.25 34.0539 348.076 32.7107 347.683 31.505L343.88 32.745C344.112 33.456 344.25 34.3627 344.25 35.5H348.25ZM347.695 31.5427C347.3 30.2452 346.588 29.1193 345.489 28.32L343.136 31.555C343.412 31.7557 343.679 32.0882 343.868 32.7073L347.695 31.5427ZM345.52 28.3433C344.381 27.4801 342.982 27.1562 341.531 27.1562V31.1562C342.414 31.1562 342.869 31.3532 343.105 31.5317L345.52 28.3433ZM341.531 27.1562H333.656V31.1562H341.531V27.1562ZM335.656 29.1751L335.719 22.5501L331.719 22.5124L331.656 29.1374L335.656 29.1751ZM333.719 24.5312H343.281V20.5312H333.719V24.5312ZM341.736 23.8007L343.892 26.4257L346.983 23.8868L344.827 21.2618L341.736 23.8007ZM345.506 27.1551C347.668 27.0812 349.142 27.5063 350.134 28.201L352.428 24.924C350.504 23.577 348.082 23.0647 345.369 23.1574L345.506 27.1551ZM350.15 28.212C351.28 28.9869 352.062 29.977 352.54 31.218L356.273 29.782C355.5 27.773 354.199 26.1381 352.412 24.913L350.15 28.212ZM352.551 31.2469C353.097 32.6023 353.375 34.0559 353.375 35.625H357.375C357.375 33.5691 357.008 31.606 356.262 29.7531L352.551 31.2469ZM353.375 35.625C353.375 38.295 352.869 40.4002 351.968 42.0334L355.47 43.9666C356.776 41.5998 357.375 38.7883 357.375 35.625H353.375ZM351.964 42.0397C351.088 43.6405 349.809 44.854 348.065 45.7006L349.81 49.2994C352.274 48.1043 354.183 46.3179 355.473 43.9603L351.964 42.0397ZM348.079 45.6936C346.314 46.5326 344.042 47 341.188 47V51C344.458 51 347.353 50.4674 349.796 49.3064L348.079 45.6936ZM378.562 11.625L380.497 12.1314L380.537 11.9798L380.553 11.824L378.562 11.625ZM368.781 49V51H370.325L370.716 49.5064L368.781 49ZM359.125 49L357.216 48.4035L356.405 51H359.125V49ZM373.344 3.5V1.5H371.873L371.435 2.90345L373.344 3.5ZM379.375 3.5L381.365 3.69901L381.585 1.5H379.375V3.5ZM386.281 49L384.347 49.5094L384.74 51H386.281V49ZM376.438 11.625L374.45 11.8467L374.466 11.9925L374.503 12.1344L376.438 11.625ZM375.531 3.5V1.5H373.296L373.544 3.7217L375.531 3.5ZM381.656 3.5L383.564 2.89868L383.123 1.5H381.656V3.5ZM396 49V51H398.728L397.907 48.3987L396 49ZM386.625 32.0312H388.625V30.0312H386.625V32.0312ZM386.625 39.625V41.625H388.625V39.625H386.625ZM366.094 39.625H364.094V41.625H366.094V39.625ZM366.094 32.0312V30.0312H364.094V32.0312H366.094ZM376.628 11.1186L366.846 48.4936L370.716 49.5064L380.497 12.1314L376.628 11.1186ZM368.781 47H359.125V51H368.781V47ZM361.034 49.5965L375.253 4.09655L371.435 2.90345L357.216 48.4035L361.034 49.5965ZM373.344 5.5H379.375V1.5H373.344V5.5ZM377.385 3.30099L376.572 11.426L380.553 11.824L381.365 3.69901L377.385 3.30099ZM388.215 48.4906L378.372 11.1156L374.503 12.1344L384.347 49.5094L388.215 48.4906ZM378.425 11.4033L377.519 3.2783L373.544 3.7217L374.45 11.8467L378.425 11.4033ZM375.531 5.5H381.656V1.5H375.531V5.5ZM379.749 4.10132L394.093 49.6013L397.907 48.3987L383.564 2.89868L379.749 4.10132ZM396 47H386.281V51H396V47ZM384.625 32.0312V39.625H388.625V32.0312H384.625ZM386.625 37.625H366.094V41.625H386.625V37.625ZM368.094 39.625V32.0312H364.094V39.625H368.094ZM366.094 34.0312H386.625V30.0312H366.094V34.0312ZM425.562 21.9375H427.562V19.9375H425.562V21.9375ZM425.562 29.5V31.5H427.562V29.5H425.562ZM406.906 29.5H404.906V31.5H406.906V29.5ZM406.906 21.9375V19.9375H404.906V21.9375H406.906ZM409.5 3.5H411.5V1.5H409.5V3.5ZM409.5 49V51H411.5V49H409.5ZM400.344 49H398.344V51H400.344V49ZM400.344 3.5V1.5H398.344V3.5H400.344ZM432.188 3.5H434.188V1.5H432.188V3.5ZM432.188 49V51H434.188V49H432.188ZM423.125 49H421.125V51H423.125V49ZM423.125 3.5V1.5H421.125V3.5H423.125ZM423.562 21.9375V29.5H427.562V21.9375H423.562ZM425.562 27.5H406.906V31.5H425.562V27.5ZM408.906 29.5V21.9375H404.906V29.5H408.906ZM406.906 23.9375H425.562V19.9375H406.906V23.9375ZM407.5 3.5V49H411.5V3.5H407.5ZM409.5 47H400.344V51H409.5V47ZM402.344 49V3.5H398.344V49H402.344ZM400.344 5.5H409.5V1.5H400.344V5.5ZM430.188 3.5V49H434.188V3.5H430.188ZM432.188 47H423.125V51H432.188V47ZM425.125 49V3.5H421.125V49H425.125ZM423.125 5.5H432.188V1.5H423.125V5.5ZM464.875 21.9375H466.875V19.9375H464.875V21.9375ZM464.875 29.5V31.5H466.875V29.5H464.875ZM446.219 29.5H444.219V31.5H446.219V29.5ZM446.219 21.9375V19.9375H444.219V21.9375H446.219ZM448.812 3.5H450.812V1.5H448.812V3.5ZM448.812 49V51H450.812V49H448.812ZM439.656 49H437.656V51H439.656V49ZM439.656 3.5V1.5H437.656V3.5H439.656ZM471.5 3.5H473.5V1.5H471.5V3.5ZM471.5 49V51H473.5V49H471.5ZM462.438 49H460.438V51H462.438V49ZM462.438 3.5V1.5H460.438V3.5H462.438ZM462.875 21.9375V29.5H466.875V21.9375H462.875ZM464.875 27.5H446.219V31.5H464.875V27.5ZM448.219 29.5V21.9375H444.219V29.5H448.219ZM446.219 23.9375H464.875V19.9375H446.219V23.9375ZM446.812 3.5V49H450.812V3.5H446.812ZM448.812 47H439.656V51H448.812V47ZM441.656 49V3.5H437.656V49H441.656ZM439.656 5.5H448.812V1.5H439.656V5.5ZM469.5 3.5V49H473.5V3.5H469.5ZM471.5 47H462.438V51H471.5V47ZM464.438 49V3.5H460.438V49H464.438ZM462.438 5.5H471.5V1.5H462.438V5.5ZM499 32.5938V34.5938H501.009L501 32.5849L499 32.5938ZM489.719 32.5938L488.951 34.4404L489.319 34.5938H489.719V32.5938ZM486.562 31.2812L487.33 29.4346L487.301 29.4221L487.27 29.4107L486.562 31.2812ZM478.75 9.8125L477.005 8.83529L478.75 9.8125ZM505.188 3.5H507.188V1.5H505.188V3.5ZM505.188 49V51H507.188V49H505.188ZM496.031 49H494.031V51H496.031V49ZM496.031 11.0938H498.031V9.09375H496.031V11.0938ZM487.375 12.9688L489.017 14.1101L489.022 14.1036L489.026 14.0971L487.375 12.9688ZM488.562 24.75L487.483 26.4338L487.508 26.4497L487.534 26.465L488.562 24.75ZM498.969 25.5L500.969 25.4912L500.96 23.5H498.969V25.5ZM492.719 28.75L494.568 29.5119L495.706 26.75H492.719V28.75ZM484.375 49V51H485.714L486.224 49.7619L484.375 49ZM474.531 49L472.682 48.2381L471.544 51H474.531V49ZM482.875 28.75V26.75H481.536L481.026 27.9881L482.875 28.75ZM499 30.5938H489.719V34.5938H499V30.5938ZM490.487 30.7471L487.33 29.4346L485.795 33.1279L488.951 34.4404L490.487 30.7471ZM487.27 29.4107C484.482 28.3557 482.461 26.8591 481.083 24.9755L477.855 27.337C479.768 29.9534 482.476 31.8734 485.855 33.1518L487.27 29.4107ZM481.083 24.9755C479.747 23.1491 479 20.7089 479 17.5H475C475 21.3328 475.899 24.6634 477.855 27.337L481.083 24.9755ZM479 17.5C479 14.7087 479.535 12.5035 480.495 10.7897L477.005 8.83529C475.631 11.2882 475 14.2079 475 17.5H479ZM480.495 10.7897C481.461 9.06463 482.824 7.77523 484.631 6.88946L482.869 3.29804C480.342 4.53727 478.372 6.3937 477.005 8.83529L480.495 10.7897ZM484.631 6.88946C486.468 5.9883 488.717 5.5 491.438 5.5V1.5C488.242 1.5 485.365 2.0742 482.869 3.29804L484.631 6.88946ZM491.438 5.5H505.188V1.5H491.438V5.5ZM503.188 3.5V49H507.188V3.5H503.188ZM505.188 47H496.031V51H505.188V47ZM498.031 49V11.0938H494.031V49H498.031ZM496.031 9.09375H491.438V13.0938H496.031V9.09375ZM491.438 9.09375C489.091 9.09375 487.037 9.91909 485.724 11.8404L489.026 14.0971C489.422 13.5184 490.075 13.0938 491.438 13.0938V9.09375ZM485.733 11.8274C484.552 13.5264 484.094 15.7529 484.094 18.25H488.094C488.094 16.1638 488.49 14.8694 489.017 14.1101L485.733 11.8274ZM484.094 18.25C484.094 20.0788 484.316 21.7268 484.857 23.1052L488.581 21.6448C488.288 20.8982 488.094 19.7962 488.094 18.25H484.094ZM484.857 23.1052C485.398 24.4864 486.255 25.6462 487.483 26.4338L489.642 23.0662C489.245 22.8122 488.872 22.3886 488.581 21.6448L484.857 23.1052ZM487.534 26.465C488.764 27.2032 490.212 27.5 491.75 27.5V23.5C490.705 23.5 490.028 23.2968 489.591 23.035L487.534 26.465ZM491.75 27.5H498.969V23.5H491.75V27.5ZM496.969 25.5088L497 32.6026L501 32.5849L500.969 25.4912L496.969 25.5088ZM490.87 27.9881L482.526 48.2381L486.224 49.7619L494.568 29.5119L490.87 27.9881ZM484.375 47H474.531V51H484.375V47ZM476.38 49.7619L484.724 29.5119L481.026 27.9881L472.682 48.2381L476.38 49.7619ZM482.875 30.75H492.719V26.75H482.875V30.75Z" fill="#E4041D" fill-opacity="0.3" mask="url(#path-1-outside-1_191_568)"/>
</svg>
