<svg width="70" height="70" viewBox="0 0 70 70" fill="none" xmlns="http://www.w3.org/2000/svg">
<path d="M38.0833 6.14583V12.0375C49.6042 13.4667 58.5 23.2667 58.5 35.1667C58.5 44.5292 52.9 52.6667 44.7333 56.4L38.0833 49.75V64.3333H52.6667L49.1083 60.775C58.2375 55.7875 64.3333 46.1333 64.3333 35.1667C64.3333 20.0583 52.8125 7.60417 38.0833 6.14583ZM32.25 6C26.5625 6.58333 21.1667 8.8 16.7333 12.4458L20.875 16.5875C24.1861 14.036 28.108 12.3968 32.25 11.8333V6ZM12.4167 16.7333C8.8 21.1667 6.58333 26.5625 6 32.25H11.8333C12.3875 28.1083 14.0208 24.1708 16.5875 20.875L12.4167 16.7333ZM17.6667 23.5V29.3333H26.4167V32.25H23.5C20.2917 32.25 17.6667 34.875 17.6667 38.0833V46.8333H32.25V41H23.5V38.0833H26.4167C29.6542 38.0833 32.25 35.4875 32.25 32.25V29.3333C32.25 27.7862 31.6354 26.3025 30.5415 25.2085C29.4475 24.1146 27.9638 23.5 26.4167 23.5H17.6667ZM35.1667 23.5V38.0833H43.9167V46.8333H49.75V38.0833H52.6667V32.25H49.75V23.5H43.9167V32.25H41V23.5H35.1667ZM6 38.0833C6.58333 43.7708 8.82917 49.1667 12.475 53.6L16.6167 49.4583C14.0547 46.1503 12.4053 42.2281 11.8333 38.0833H6ZM20.9042 53.7458L16.7333 57.8875C21.1649 61.5057 26.5592 63.7466 32.25 64.3333V58.5C28.1131 57.9504 24.1971 56.3095 20.9042 53.7458Z" fill="white"/>
</svg>
