<svg width="50" height="50" viewBox="0 0 50 50" fill="none" xmlns="http://www.w3.org/2000/svg">
<mask id="path-1-inside-1_445_362" fill="white">
<path d="M9.61667 37.5002C8.65694 37.5002 7.85625 37.1793 7.21458 36.5377C6.57292 35.896 6.25139 35.0946 6.25 34.1335V11.7002C6.25 10.7404 6.57153 9.93975 7.21458 9.29808C7.85764 8.65641 8.65764 8.33488 9.61458 8.3335H40.3854C41.3438 8.3335 42.1437 8.65502 42.7854 9.29808C43.4271 9.94113 43.7486 10.7418 43.75 11.7002V34.1356C43.75 35.0939 43.4285 35.8946 42.7854 36.5377C42.1424 37.1807 41.3424 37.5016 40.3854 37.5002H31.25V39.9835C31.25 40.4613 31.0889 40.8613 30.7667 41.1835C30.4444 41.5057 30.0444 41.6668 29.5667 41.6668H20.4333C19.9569 41.6668 19.5569 41.5057 19.2333 41.1835C18.9097 40.8613 18.7486 40.4613 18.75 39.9835V37.5002H9.61667ZM9.61667 35.4168H40.3854C40.7049 35.4168 40.9986 35.2835 41.2667 35.0168C41.5347 34.7502 41.6681 34.4557 41.6667 34.1335V11.7002C41.6667 11.3793 41.5333 11.0849 41.2667 10.8168C41 10.5488 40.7062 10.4154 40.3854 10.4168H9.61458C9.29514 10.4168 9.00139 10.5502 8.73333 10.8168C8.46528 11.0835 8.33194 11.3779 8.33333 11.7002V34.1356C8.33333 34.455 8.46667 34.7488 8.73333 35.0168C9 35.2849 9.29375 35.4182 9.61458 35.4168M12.4938 32.6918C12.9021 32.6918 13.2451 32.5543 13.5229 32.2793C13.8021 32.0043 13.9417 31.6634 13.9417 31.2564C13.9417 30.8481 13.8042 30.505 13.5292 30.2272C13.2542 29.9481 12.9132 29.8085 12.5062 29.8085C12.0979 29.8085 11.7549 29.946 11.4771 30.221C11.1979 30.496 11.0583 30.837 11.0583 31.2439C11.0583 31.6509 11.1958 31.9939 11.4708 32.2731C11.7458 32.5522 12.0868 32.6918 12.4938 32.6918ZM25.7 32.6918C25.9514 32.6918 26.1646 32.6029 26.3396 32.4252C26.5146 32.2474 26.6021 32.0335 26.6021 31.7835C26.6021 27.7265 25.1771 24.2731 22.3271 21.4231C19.4771 18.5731 16.0236 17.1474 11.9667 17.146C11.7167 17.146 11.5028 17.2349 11.325 17.4127C11.1472 17.5932 11.0583 17.8092 11.0583 18.0606C11.0583 18.3134 11.1472 18.5272 11.325 18.7022C11.5028 18.8772 11.7167 18.9647 11.9667 18.9647C15.5236 18.9647 18.5493 20.2113 21.0437 22.7043C23.5382 25.1974 24.7847 28.2231 24.7833 31.7814C24.7833 32.0314 24.8729 32.2453 25.0521 32.4231C25.2312 32.6009 25.4465 32.6897 25.6979 32.6897M19.3687 32.6897C19.6215 32.6897 19.8354 32.6009 20.0104 32.4231C20.1854 32.2453 20.2729 32.0314 20.2729 31.7814C20.2729 29.4814 19.4632 27.5224 17.8437 25.9043C16.2243 24.2863 14.266 23.4766 11.9687 23.4752C11.7174 23.4752 11.5021 23.5647 11.3229 23.7439C11.1465 23.9231 11.0583 24.1384 11.0583 24.3897C11.0583 24.6425 11.1472 24.8564 11.325 25.0314C11.5028 25.2064 11.7167 25.2939 11.9667 25.2939C13.7861 25.2939 15.3222 25.9203 16.575 27.1731C17.8278 28.4259 18.4542 29.962 18.4542 31.7814C18.4542 32.0314 18.5438 32.2453 18.7229 32.4231C18.9007 32.6009 19.116 32.6897 19.3687 32.6897Z"/>
</mask>
<path d="M9.61667 37.5002C8.65694 37.5002 7.85625 37.1793 7.21458 36.5377C6.57292 35.896 6.25139 35.0946 6.25 34.1335V11.7002C6.25 10.7404 6.57153 9.93975 7.21458 9.29808C7.85764 8.65641 8.65764 8.33488 9.61458 8.3335H40.3854C41.3438 8.3335 42.1437 8.65502 42.7854 9.29808C43.4271 9.94113 43.7486 10.7418 43.75 11.7002V34.1356C43.75 35.0939 43.4285 35.8946 42.7854 36.5377C42.1424 37.1807 41.3424 37.5016 40.3854 37.5002H31.25V39.9835C31.25 40.4613 31.0889 40.8613 30.7667 41.1835C30.4444 41.5057 30.0444 41.6668 29.5667 41.6668H20.4333C19.9569 41.6668 19.5569 41.5057 19.2333 41.1835C18.9097 40.8613 18.7486 40.4613 18.75 39.9835V37.5002H9.61667ZM9.61667 35.4168H40.3854C40.7049 35.4168 40.9986 35.2835 41.2667 35.0168C41.5347 34.7502 41.6681 34.4557 41.6667 34.1335V11.7002C41.6667 11.3793 41.5333 11.0849 41.2667 10.8168C41 10.5488 40.7062 10.4154 40.3854 10.4168H9.61458C9.29514 10.4168 9.00139 10.5502 8.73333 10.8168C8.46528 11.0835 8.33194 11.3779 8.33333 11.7002V34.1356C8.33333 34.455 8.46667 34.7488 8.73333 35.0168C9 35.2849 9.29375 35.4182 9.61458 35.4168M12.4938 32.6918C12.9021 32.6918 13.2451 32.5543 13.5229 32.2793C13.8021 32.0043 13.9417 31.6634 13.9417 31.2564C13.9417 30.8481 13.8042 30.505 13.5292 30.2272C13.2542 29.9481 12.9132 29.8085 12.5062 29.8085C12.0979 29.8085 11.7549 29.946 11.4771 30.221C11.1979 30.496 11.0583 30.837 11.0583 31.2439C11.0583 31.6509 11.1958 31.9939 11.4708 32.2731C11.7458 32.5522 12.0868 32.6918 12.4938 32.6918ZM25.7 32.6918C25.9514 32.6918 26.1646 32.6029 26.3396 32.4252C26.5146 32.2474 26.6021 32.0335 26.6021 31.7835C26.6021 27.7265 25.1771 24.2731 22.3271 21.4231C19.4771 18.5731 16.0236 17.1474 11.9667 17.146C11.7167 17.146 11.5028 17.2349 11.325 17.4127C11.1472 17.5932 11.0583 17.8092 11.0583 18.0606C11.0583 18.3134 11.1472 18.5272 11.325 18.7022C11.5028 18.8772 11.7167 18.9647 11.9667 18.9647C15.5236 18.9647 18.5493 20.2113 21.0437 22.7043C23.5382 25.1974 24.7847 28.2231 24.7833 31.7814C24.7833 32.0314 24.8729 32.2453 25.0521 32.4231C25.2312 32.6009 25.4465 32.6897 25.6979 32.6897M19.3687 32.6897C19.6215 32.6897 19.8354 32.6009 20.0104 32.4231C20.1854 32.2453 20.2729 32.0314 20.2729 31.7814C20.2729 29.4814 19.4632 27.5224 17.8437 25.9043C16.2243 24.2863 14.266 23.4766 11.9687 23.4752C11.7174 23.4752 11.5021 23.5647 11.3229 23.7439C11.1465 23.9231 11.0583 24.1384 11.0583 24.3897C11.0583 24.6425 11.1472 24.8564 11.325 25.0314C11.5028 25.2064 11.7167 25.2939 11.9667 25.2939C13.7861 25.2939 15.3222 25.9203 16.575 27.1731C17.8278 28.4259 18.4542 29.962 18.4542 31.7814C18.4542 32.0314 18.5438 32.2453 18.7229 32.4231C18.9007 32.6009 19.116 32.6897 19.3687 32.6897Z" fill="white"/>
<path d="M9.33333 35.4168V10.4168H7.33333V35.4168H9.33333ZM6.25 34.1335H4.25L4.25 34.1364L6.25 34.1335ZM9.61458 8.3335V6.33349L9.61168 6.3335L9.61458 8.3335ZM43.75 11.7002H45.75L45.75 11.6973L43.75 11.7002ZM40.3854 37.5002L40.3883 35.5002H40.3854V37.5002ZM31.25 37.5002V35.5002H29.25V37.5002H31.25ZM18.75 39.9835L20.75 39.9893V39.9835H18.75ZM18.75 37.5002H20.75V35.5002H18.75V37.5002ZM41.6667 34.1335H39.6666L39.6667 34.1421L41.6667 34.1335ZM40.3854 10.4168V12.4168L40.3941 12.4168L40.3854 10.4168ZM8.33333 11.7002H10.3334L10.3333 11.6915L8.33333 11.7002ZM13.5229 32.2793L12.1194 30.8545L12.1158 30.858L13.5229 32.2793ZM13.5292 30.2272L12.1044 31.6308L12.1079 31.6343L13.5292 30.2272ZM11.4771 30.221L12.8806 31.6458L12.8842 31.6423L11.4771 30.221ZM26.6021 31.7835H24.6021H26.6021ZM11.9667 17.146L11.9674 15.146H11.9667V17.146ZM11.325 17.4127L9.91079 15.9984L9.9053 16.0039L9.89987 16.0095L11.325 17.4127ZM24.7833 31.7814L22.7833 31.7806V31.7814H24.7833ZM11.9687 23.4752L11.97 21.4752H11.9687V23.4752ZM11.3229 23.7439L9.9087 22.3297L9.90318 22.3352L9.8977 22.3408L11.3229 23.7439ZM18.7229 32.4231L20.1371 31.0089L20.1316 31.0034L18.7229 32.4231ZM9.61667 35.5002C9.15344 35.5002 8.87206 35.3667 8.6288 35.1234L5.80037 37.9519C6.84044 38.9919 8.16045 39.5002 9.61667 39.5002V35.5002ZM8.6288 35.1234C8.38536 34.88 8.25067 34.597 8.25 34.1306L4.25 34.1364C4.25211 35.5922 4.76047 36.912 5.80037 37.9519L8.6288 35.1234ZM8.25 34.1335V11.7002H4.25V34.1335H8.25ZM8.25 11.7002C8.25 11.2383 8.38317 10.9574 8.62727 10.7138L5.8019 7.88234C4.75988 8.9221 4.25 10.2426 4.25 11.7002H8.25ZM8.62727 10.7138C8.87445 10.4672 9.15785 10.3342 9.61749 10.3335L9.61168 6.3335C8.15742 6.33561 6.84082 6.84566 5.8019 7.88234L8.62727 10.7138ZM9.61458 10.3335H40.3854V6.3335H9.61458V10.3335ZM40.3854 10.3335C40.845 10.3335 41.1255 10.4661 41.3697 10.7108L44.2012 7.8854C43.162 6.84397 41.8425 6.3335 40.3854 6.3335V10.3335ZM41.3697 10.7108C41.6157 10.9574 41.7493 11.2412 41.75 11.7031L45.75 11.6973C45.7479 10.2425 45.2384 8.92492 44.2012 7.8854L41.3697 10.7108ZM41.75 11.7002V34.1356H45.75V11.7002H41.75ZM41.75 34.1356C41.75 34.5952 41.6173 34.8773 41.3712 35.1234L44.1996 37.9519C45.2396 36.9119 45.75 35.5926 45.75 34.1356H41.75ZM41.3712 35.1234C41.1252 35.3694 40.8447 35.5008 40.3883 35.5002L40.3825 39.5002C41.84 39.5023 43.1595 38.992 44.1996 37.9519L41.3712 35.1234ZM40.3854 35.5002H31.25V39.5002H40.3854V35.5002ZM29.25 37.5002V39.9835H33.25V37.5002H29.25ZM29.25 39.9835C29.25 39.994 29.2491 39.9565 29.274 39.8946C29.2997 39.8309 29.3342 39.7876 29.3525 39.7693L32.1809 42.5977C32.8979 41.8806 33.25 40.9631 33.25 39.9835H29.25ZM29.3525 39.7693C29.3707 39.751 29.414 39.7165 29.4778 39.6908C29.5396 39.6659 29.5772 39.6668 29.5667 39.6668V43.6668C30.5463 43.6668 31.4638 43.3148 32.1809 42.5977L29.3525 39.7693ZM29.5667 39.6668H20.4333V43.6668H29.5667V39.6668ZM20.4333 39.6668C20.4243 39.6668 20.4621 39.6662 20.5233 39.6908C20.5861 39.7161 20.6279 39.7497 20.6445 39.7662L17.8222 42.6007C18.5382 43.3138 19.4534 43.6668 20.4333 43.6668V39.6668ZM20.6445 39.7662C20.663 39.7847 20.6985 39.8289 20.725 39.8946C20.7507 39.9585 20.75 39.9981 20.75 39.9893L16.75 39.9777C16.7471 40.9619 17.1011 41.8828 17.8222 42.6007L20.6445 39.7662ZM20.75 39.9835V37.5002H16.75V39.9835H20.75ZM18.75 35.5002H9.61667V39.5002H18.75V35.5002ZM9.61667 37.4168H40.3854V33.4168H9.61667V37.4168ZM40.3854 37.4168C41.3293 37.4168 42.1083 37.0007 42.6772 36.4347L39.8561 33.5989C39.8626 33.5925 39.9146 33.5429 40.0187 33.4957C40.1288 33.4457 40.2571 33.4168 40.3854 33.4168V37.4168ZM42.6772 36.4347C43.2536 35.8613 43.6707 35.0749 43.6666 34.1249L39.6667 34.1421C39.6661 34.0149 39.6943 33.8848 39.7458 33.771C39.7946 33.6632 39.8469 33.6081 39.8561 33.5989L42.6772 36.4347ZM43.6667 34.1335V11.7002H39.6667V34.1335H43.6667ZM43.6667 11.7002C43.6667 10.7572 43.2525 9.97717 42.6845 9.40629L39.8488 12.2274C39.8416 12.2202 39.7919 12.1678 39.7448 12.0637C39.695 11.9537 39.6667 11.8265 39.6667 11.7002H43.6667ZM42.6845 9.40629C42.1131 8.83185 41.3278 8.41273 40.3768 8.41685L40.3941 12.4168C40.2648 12.4174 40.1337 12.3887 40.0197 12.337C39.9119 12.288 39.8573 12.2359 39.8488 12.2274L42.6845 9.40629ZM40.3854 8.41683H9.61458V12.4168H40.3854V8.41683ZM9.61458 8.41683C8.67065 8.41683 7.8917 8.83299 7.3228 9.39895L10.1439 12.2347C10.1374 12.2412 10.0854 12.2908 9.98132 12.338C9.87119 12.388 9.74289 12.4168 9.61458 12.4168V8.41683ZM7.3228 9.39895C6.74638 9.97238 6.32926 10.7588 6.33335 11.7088L10.3333 11.6915C10.3339 11.8188 10.3057 11.9489 10.2542 12.0627C10.2054 12.1704 10.1531 12.2255 10.1439 12.2347L7.3228 9.39895ZM6.33333 11.7002V34.1356H10.3333V11.7002H6.33333ZM6.33333 34.1356C6.33333 35.0795 6.74949 35.8585 7.31545 36.4274L10.1512 33.6063C10.1577 33.6128 10.2073 33.6648 10.2545 33.7688C10.3045 33.879 10.3333 34.0073 10.3333 34.1356H6.33333ZM7.31545 36.4274C7.88692 37.0018 8.67223 37.4209 9.62324 37.4168L9.60592 33.4168C9.73519 33.4163 9.86633 33.445 9.98028 33.4967C10.0881 33.5456 10.1427 33.5978 10.1512 33.6063L7.31545 36.4274ZM12.4938 34.6918C13.4029 34.6918 14.2595 34.3644 14.93 33.7006L12.1158 30.858C12.1556 30.8187 12.2228 30.7685 12.3132 30.7323C12.4019 30.6967 12.4698 30.6918 12.4938 30.6918V34.6918ZM14.9265 33.7041C15.6033 33.0374 15.9417 32.1759 15.9417 31.2564H11.9417C11.9417 31.2272 11.9476 31.1536 11.9861 31.0596C12.0252 30.9641 12.0787 30.8946 12.1194 30.8545L14.9265 33.7041ZM15.9417 31.2564C15.9417 30.3473 15.6142 29.4906 14.9505 28.8202L12.1079 31.6343C12.0685 31.5946 12.0183 31.5274 11.9821 31.4369C11.9466 31.3482 11.9417 31.2804 11.9417 31.2564H15.9417ZM14.954 28.8237C14.2872 28.1468 13.4258 27.8085 12.5062 27.8085V31.8085C12.4771 31.8085 12.4034 31.8026 12.3095 31.7641C12.214 31.725 12.1444 31.6715 12.1044 31.6308L14.954 28.8237ZM12.5062 27.8085C11.5971 27.8085 10.7405 28.1359 10.07 28.7997L12.8842 31.6423C12.8444 31.6817 12.7772 31.7318 12.6868 31.7681C12.5981 31.8036 12.5302 31.8085 12.5062 31.8085V27.8085ZM10.0735 28.7962C9.39666 29.463 9.05833 30.3244 9.05833 31.2439H13.0583C13.0583 31.2731 13.0524 31.3467 13.0139 31.4407C12.9748 31.5362 12.9213 31.6057 12.8806 31.6458L10.0735 28.7962ZM9.05833 31.2439C9.05833 32.1536 9.38694 33.0075 10.046 33.6766L12.8956 30.8695C12.9329 30.9074 12.9821 30.973 13.0179 31.0623C13.0531 31.1503 13.0583 31.2183 13.0583 31.2439H9.05833ZM10.046 33.6766C10.7128 34.3535 11.5742 34.6918 12.4938 34.6918V30.6918C12.5229 30.6918 12.5966 30.6978 12.6905 30.7362C12.786 30.7753 12.8556 30.8289 12.8956 30.8695L10.046 33.6766ZM25.7 34.6918C26.4826 34.6918 27.2107 34.3912 27.7649 33.8282L24.9143 31.0221C24.9986 30.9365 25.1204 30.8452 25.2788 30.7792C25.4368 30.7133 25.585 30.6918 25.7 30.6918V34.6918ZM27.7649 33.8282C28.3091 33.2754 28.6021 32.5572 28.6021 31.7835H24.6021C24.6021 31.6702 24.623 31.5266 24.6854 31.3741C24.7478 31.2216 24.8338 31.1039 24.9143 31.0221L27.7649 33.8282ZM28.6021 31.7835C28.6021 27.2 26.9691 23.2367 23.7413 20.0089L20.9129 22.8373C23.385 25.3095 24.6021 28.2531 24.6021 31.7835H28.6021ZM23.7413 20.0089C20.5136 16.7812 16.5506 15.1476 11.9674 15.146L11.966 19.146C15.4966 19.1472 18.4405 20.365 20.9129 22.8373L23.7413 20.0089ZM11.9667 15.146C11.1829 15.146 10.4612 15.448 9.91079 15.9984L12.7392 18.8269C12.6589 18.9072 12.5411 18.9952 12.3863 19.0595C12.2312 19.124 12.084 19.146 11.9667 19.146V15.146ZM9.89987 16.0095C9.35699 16.5608 9.05833 17.2795 9.05833 18.0606H13.0583C13.0583 18.1759 13.0368 18.3198 12.9745 18.4713C12.9123 18.6224 12.8274 18.7374 12.7501 18.8159L9.89987 16.0095ZM9.05833 18.0606C9.05833 18.8412 9.3566 19.571 9.92197 20.1276L12.728 17.2769C12.8147 17.3623 12.9061 17.4848 12.9719 17.6431C13.0374 17.8008 13.0583 17.9477 13.0583 18.0606H9.05833ZM9.92197 20.1276C10.4748 20.6717 11.193 20.9647 11.9667 20.9647V16.9647C12.0799 16.9647 12.2235 16.9857 12.376 17.048C12.5286 17.1104 12.6463 17.1965 12.728 17.2769L9.92197 20.1276ZM11.9667 20.9647C14.9985 20.9647 17.5141 22.0043 19.6299 24.1189L22.4576 21.2897C19.5845 18.4182 16.0487 16.9647 11.9667 16.9647V20.9647ZM19.6299 24.1189C21.7451 26.2329 22.7845 28.7478 22.7833 31.7806L26.7833 31.7822C26.7849 27.6983 25.3313 24.1618 22.4576 21.2897L19.6299 24.1189ZM22.7833 31.7814C22.7833 32.5703 23.0899 33.2936 23.6434 33.8428L26.4608 31.0034C26.541 31.083 26.6299 31.2007 26.6953 31.3567C26.7607 31.513 26.7833 31.662 26.7833 31.7814H22.7833ZM23.6434 33.8428C24.1955 34.3906 24.9164 34.6897 25.6979 34.6897V30.6897C25.8131 30.6897 25.9581 30.7113 26.1112 30.7745C26.2641 30.8376 26.3809 30.9241 26.4608 31.0034L23.6434 33.8428ZM19.3687 34.6897C20.1494 34.6897 20.8792 34.3915 21.4357 33.8261L18.5851 31.02C18.6704 30.9334 18.793 30.842 18.9512 30.7762C19.1089 30.7107 19.2559 30.6897 19.3687 30.6897V34.6897ZM21.4357 33.8261C21.9799 33.2733 22.2729 32.5551 22.2729 31.7814H18.2729C18.2729 31.6681 18.2938 31.5245 18.3562 31.3721C18.4186 31.2195 18.5046 31.1018 18.5851 31.02L21.4357 33.8261ZM22.2729 31.7814C22.2729 28.9535 21.2542 26.4847 19.2574 24.4895L16.4301 27.3191C17.6722 28.5601 18.2729 30.0093 18.2729 31.7814H22.2729ZM19.2574 24.4895C17.2617 22.4956 14.7948 21.4769 11.97 21.4752L11.9675 25.4752C13.7371 25.4762 15.1869 26.077 16.4301 27.3191L19.2574 24.4895ZM11.9687 21.4752C11.1822 21.4752 10.4596 21.7788 9.9087 22.3297L12.7371 25.1581C12.6579 25.2373 12.5412 25.3247 12.3871 25.3889C12.2328 25.4531 12.086 25.4752 11.9687 25.4752V21.4752ZM9.8977 22.3408C9.35303 22.894 9.05833 23.6133 9.05833 24.3897H13.0583C13.0583 24.503 13.0374 24.6461 12.9752 24.7979C12.913 24.9497 12.8275 25.0664 12.7481 25.147L9.8977 22.3408ZM9.05833 24.3897C9.05833 25.1704 9.3566 25.9002 9.92197 26.4567L12.728 23.6061C12.8147 23.6914 12.9061 23.814 12.9719 23.9722C13.0374 24.1299 13.0583 24.2769 13.0583 24.3897H9.05833ZM9.92197 26.4567C10.4748 27.0009 11.193 27.2939 11.9667 27.2939V23.2939C12.0799 23.2939 12.2235 23.3148 12.376 23.3772C12.5286 23.4396 12.6463 23.5256 12.728 23.6061L9.92197 26.4567ZM11.9667 27.2939C13.2717 27.2939 14.2942 27.7208 15.1608 28.5873L17.9892 25.7589C16.3502 24.1199 14.3005 23.2939 11.9667 23.2939V27.2939ZM15.1608 28.5873C16.0273 29.4538 16.4542 30.4764 16.4542 31.7814H20.4542C20.4542 29.4475 19.6282 27.3979 17.9892 25.7589L15.1608 28.5873ZM16.4542 31.7814C16.4542 32.5703 16.7607 33.2936 17.3142 33.8428L20.1316 31.0034C20.2118 31.083 20.3008 31.2007 20.3661 31.3567C20.4316 31.513 20.4542 31.662 20.4542 31.7814H16.4542ZM17.3087 33.8373C17.8638 34.3924 18.5888 34.6897 19.3687 34.6897V30.6897C19.4817 30.6897 19.6266 30.7107 19.781 30.7745C19.9356 30.8383 20.0547 30.9264 20.1371 31.0089L17.3087 33.8373Z" fill="white" mask="url(#path-1-inside-1_445_362)"/>
</svg>
