<svg width="50" height="50" viewBox="0 0 50 50" fill="none" xmlns="http://www.w3.org/2000/svg">
<mask id="path-1-inside-1_445_184" fill="white">
<path d="M46.1406 3.85932C45.9208 3.63987 45.623 3.5166 45.3124 3.5166C45.0019 3.5166 44.704 3.63987 44.4843 3.85932L33.9726 14.3691L32.6464 13.0449C31.5476 11.9464 30.0575 11.3293 28.5038 11.3293C26.9501 11.3293 25.4601 11.9464 24.3613 13.0449L19.5312 17.873L18.0156 16.3593C17.7934 16.1523 17.4996 16.0396 17.196 16.045C16.8924 16.0503 16.6027 16.1733 16.388 16.388C16.1733 16.6027 16.0503 16.8924 16.045 17.196C16.0396 17.4996 16.1523 17.7934 16.3593 18.0156L17.873 19.5312L13.0449 24.3613C11.9464 25.4601 11.3293 26.9502 11.3293 28.5039C11.3293 30.0575 11.9464 31.5476 13.0449 32.6464L14.3691 33.9726L3.85931 44.4843C3.74417 44.5916 3.65183 44.721 3.58778 44.8647C3.52373 45.0085 3.48929 45.1637 3.48651 45.321C3.48373 45.4784 3.51268 45.6346 3.57162 45.7806C3.63056 45.9265 3.71828 46.059 3.82956 46.1703C3.94084 46.2816 4.07339 46.3693 4.21931 46.4283C4.36523 46.4872 4.52153 46.5161 4.67888 46.5134C4.83622 46.5106 4.9914 46.4762 5.13515 46.4121C5.2789 46.3481 5.40828 46.2557 5.51556 46.1406L16.0273 35.6308L17.3534 36.955C18.4522 38.0535 19.9423 38.6706 21.496 38.6706C23.0497 38.6706 24.5398 38.0535 25.6386 36.955L30.4687 32.1269L31.9843 33.6406C32.2065 33.8476 32.5003 33.9603 32.8039 33.9549C33.1075 33.9495 33.3971 33.8266 33.6118 33.6119C33.8266 33.3971 33.9495 33.1075 33.9549 32.8039C33.9603 32.5003 33.8476 32.2065 33.6406 31.9843L32.1269 30.4687L36.955 25.6386C38.0535 24.5398 38.6706 23.0497 38.6706 21.496C38.6706 19.9423 38.0535 18.4523 36.955 17.3535L35.6308 16.0273L46.1406 5.51557C46.36 5.29584 46.4833 4.99799 46.4833 4.68745C46.4833 4.3769 46.36 4.07905 46.1406 3.85932ZM23.9824 35.3046C23.6559 35.6312 23.2683 35.8903 22.8417 36.067C22.4151 36.2438 21.9578 36.3347 21.496 36.3347C21.0343 36.3347 20.577 36.2438 20.1504 36.067C19.7238 35.8903 19.3362 35.6312 19.0097 35.3046L14.7011 30.9902C14.3745 30.6637 14.1155 30.2761 13.9387 29.8495C13.762 29.4229 13.671 28.9656 13.671 28.5039C13.671 28.0421 13.762 27.5848 13.9387 27.1582C14.1155 26.7316 14.3745 26.344 14.7011 26.0175L19.5312 21.1894L28.8105 30.4687L23.9824 35.3046ZM35.2988 23.9882L30.4687 28.8105L21.1894 19.5312L26.0175 14.7011C26.344 14.3745 26.7316 14.1155 27.1582 13.9387C27.5848 13.762 28.0421 13.671 28.5038 13.671C28.9656 13.671 29.4229 13.762 29.8495 13.9387C30.2761 14.1155 30.6637 14.3745 30.9902 14.7011L35.2988 19.0097C35.6253 19.3362 35.8844 19.7238 36.0612 20.1504C36.2379 20.577 36.3289 21.0343 36.3289 21.496C36.3289 21.9578 36.2379 22.4151 36.0612 22.8417C35.8844 23.2683 35.6253 23.6559 35.2988 23.9824V23.9882ZM17.662 6.68549C17.5494 6.39754 17.5551 6.07672 17.6779 5.79295C17.8007 5.50918 18.0307 5.28545 18.3178 5.17053C18.6048 5.0556 18.9257 5.05878 19.2104 5.17939C19.4951 5.29999 19.7207 5.52824 19.8378 5.8144L21.4003 9.72065C21.4589 9.86378 21.4886 10.0171 21.4877 10.1718C21.4868 10.3264 21.4552 10.4794 21.3949 10.6218C21.3346 10.7642 21.2467 10.8933 21.1362 11.0015C21.0258 11.1098 20.895 11.1951 20.7514 11.2526C20.6078 11.3101 20.4543 11.3386 20.2996 11.3365C20.145 11.3343 19.9923 11.3016 19.8503 11.2402C19.7084 11.1787 19.58 11.0898 19.4726 10.9785C19.3652 10.8672 19.2809 10.7358 19.2245 10.5917L17.662 6.68549ZM5.16204 18.3144C5.27757 18.0259 5.50297 17.7951 5.78866 17.6727C6.07436 17.5504 6.39695 17.5466 6.68548 17.6621L10.5917 19.2246C10.7358 19.2809 10.8672 19.3652 10.9785 19.4726C11.0898 19.58 11.1787 19.7084 11.2401 19.8504C11.3016 19.9923 11.3343 20.145 11.3365 20.2996C11.3386 20.4543 11.3101 20.6078 11.2526 20.7514C11.1951 20.895 11.1098 21.0258 11.0015 21.1362C10.8932 21.2467 10.7642 21.3346 10.6218 21.3949C10.4794 21.4552 10.3264 21.4868 10.1717 21.4877C10.0171 21.4886 9.86377 21.4589 9.72064 21.4003L5.81439 19.8378C5.52587 19.7223 5.29505 19.4969 5.17272 19.2112C5.05038 18.9255 5.04654 18.6029 5.16204 18.3144ZM44.8378 31.6855C44.7223 31.974 44.4969 32.2048 44.2112 32.3272C43.9255 32.4495 43.6029 32.4533 43.3144 32.3378L39.4081 30.7753C39.122 30.6582 38.8937 30.4326 38.7731 30.1479C38.6525 29.8632 38.6493 29.5424 38.7643 29.2553C38.8792 28.9682 39.1029 28.7382 39.3867 28.6154C39.6705 28.4926 39.9913 28.4869 40.2792 28.5996L44.1855 30.1621C44.474 30.2776 44.7048 30.503 44.8272 30.7887C44.9495 31.0744 44.9533 31.397 44.8378 31.6855ZM32.3378 43.3144C32.3964 43.4575 32.4261 43.6108 32.4252 43.7655C32.4243 43.9202 32.3927 44.0731 32.3324 44.2155C32.2721 44.3579 32.1842 44.487 32.0737 44.5953C31.9633 44.7035 31.8325 44.7889 31.6889 44.8464C31.5453 44.9039 31.3918 44.9324 31.2371 44.9302C31.0825 44.9281 30.9298 44.8953 30.7878 44.8339C30.6459 44.7725 30.5175 44.6835 30.4101 44.5723C30.3027 44.461 30.2184 44.3295 30.162 44.1855L28.5995 40.2792C28.4869 39.9913 28.4926 39.6705 28.6154 39.3867C28.7382 39.1029 28.9682 38.8792 29.2553 38.7643C29.5423 38.6493 29.8632 38.6525 30.1479 38.7731C30.4326 38.8937 30.6582 39.122 30.7753 39.4081L32.3378 43.3144Z"/>
</mask>
<path d="M46.1406 3.85932C45.9208 3.63987 45.623 3.5166 45.3124 3.5166C45.0019 3.5166 44.704 3.63987 44.4843 3.85932L33.9726 14.3691L32.6464 13.0449C31.5476 11.9464 30.0575 11.3293 28.5038 11.3293C26.9501 11.3293 25.4601 11.9464 24.3613 13.0449L19.5312 17.873L18.0156 16.3593C17.7934 16.1523 17.4996 16.0396 17.196 16.045C16.8924 16.0503 16.6027 16.1733 16.388 16.388C16.1733 16.6027 16.0503 16.8924 16.045 17.196C16.0396 17.4996 16.1523 17.7934 16.3593 18.0156L17.873 19.5312L13.0449 24.3613C11.9464 25.4601 11.3293 26.9502 11.3293 28.5039C11.3293 30.0575 11.9464 31.5476 13.0449 32.6464L14.3691 33.9726L3.85931 44.4843C3.74417 44.5916 3.65183 44.721 3.58778 44.8647C3.52373 45.0085 3.48929 45.1637 3.48651 45.321C3.48373 45.4784 3.51268 45.6346 3.57162 45.7806C3.63056 45.9265 3.71828 46.059 3.82956 46.1703C3.94084 46.2816 4.07339 46.3693 4.21931 46.4283C4.36523 46.4872 4.52153 46.5161 4.67888 46.5134C4.83622 46.5106 4.9914 46.4762 5.13515 46.4121C5.2789 46.3481 5.40828 46.2557 5.51556 46.1406L16.0273 35.6308L17.3534 36.955C18.4522 38.0535 19.9423 38.6706 21.496 38.6706C23.0497 38.6706 24.5398 38.0535 25.6386 36.955L30.4687 32.1269L31.9843 33.6406C32.2065 33.8476 32.5003 33.9603 32.8039 33.9549C33.1075 33.9495 33.3971 33.8266 33.6118 33.6119C33.8266 33.3971 33.9495 33.1075 33.9549 32.8039C33.9603 32.5003 33.8476 32.2065 33.6406 31.9843L32.1269 30.4687L36.955 25.6386C38.0535 24.5398 38.6706 23.0497 38.6706 21.496C38.6706 19.9423 38.0535 18.4523 36.955 17.3535L35.6308 16.0273L46.1406 5.51557C46.36 5.29584 46.4833 4.99799 46.4833 4.68745C46.4833 4.3769 46.36 4.07905 46.1406 3.85932ZM23.9824 35.3046C23.6559 35.6312 23.2683 35.8903 22.8417 36.067C22.4151 36.2438 21.9578 36.3347 21.496 36.3347C21.0343 36.3347 20.577 36.2438 20.1504 36.067C19.7238 35.8903 19.3362 35.6312 19.0097 35.3046L14.7011 30.9902C14.3745 30.6637 14.1155 30.2761 13.9387 29.8495C13.762 29.4229 13.671 28.9656 13.671 28.5039C13.671 28.0421 13.762 27.5848 13.9387 27.1582C14.1155 26.7316 14.3745 26.344 14.7011 26.0175L19.5312 21.1894L28.8105 30.4687L23.9824 35.3046ZM35.2988 23.9882L30.4687 28.8105L21.1894 19.5312L26.0175 14.7011C26.344 14.3745 26.7316 14.1155 27.1582 13.9387C27.5848 13.762 28.0421 13.671 28.5038 13.671C28.9656 13.671 29.4229 13.762 29.8495 13.9387C30.2761 14.1155 30.6637 14.3745 30.9902 14.7011L35.2988 19.0097C35.6253 19.3362 35.8844 19.7238 36.0612 20.1504C36.2379 20.577 36.3289 21.0343 36.3289 21.496C36.3289 21.9578 36.2379 22.4151 36.0612 22.8417C35.8844 23.2683 35.6253 23.6559 35.2988 23.9824V23.9882ZM17.662 6.68549C17.5494 6.39754 17.5551 6.07672 17.6779 5.79295C17.8007 5.50918 18.0307 5.28545 18.3178 5.17053C18.6048 5.0556 18.9257 5.05878 19.2104 5.17939C19.4951 5.29999 19.7207 5.52824 19.8378 5.8144L21.4003 9.72065C21.4589 9.86378 21.4886 10.0171 21.4877 10.1718C21.4868 10.3264 21.4552 10.4794 21.3949 10.6218C21.3346 10.7642 21.2467 10.8933 21.1362 11.0015C21.0258 11.1098 20.895 11.1951 20.7514 11.2526C20.6078 11.3101 20.4543 11.3386 20.2996 11.3365C20.145 11.3343 19.9923 11.3016 19.8503 11.2402C19.7084 11.1787 19.58 11.0898 19.4726 10.9785C19.3652 10.8672 19.2809 10.7358 19.2245 10.5917L17.662 6.68549ZM5.16204 18.3144C5.27757 18.0259 5.50297 17.7951 5.78866 17.6727C6.07436 17.5504 6.39695 17.5466 6.68548 17.6621L10.5917 19.2246C10.7358 19.2809 10.8672 19.3652 10.9785 19.4726C11.0898 19.58 11.1787 19.7084 11.2401 19.8504C11.3016 19.9923 11.3343 20.145 11.3365 20.2996C11.3386 20.4543 11.3101 20.6078 11.2526 20.7514C11.1951 20.895 11.1098 21.0258 11.0015 21.1362C10.8932 21.2467 10.7642 21.3346 10.6218 21.3949C10.4794 21.4552 10.3264 21.4868 10.1717 21.4877C10.0171 21.4886 9.86377 21.4589 9.72064 21.4003L5.81439 19.8378C5.52587 19.7223 5.29505 19.4969 5.17272 19.2112C5.05038 18.9255 5.04654 18.6029 5.16204 18.3144ZM44.8378 31.6855C44.7223 31.974 44.4969 32.2048 44.2112 32.3272C43.9255 32.4495 43.6029 32.4533 43.3144 32.3378L39.4081 30.7753C39.122 30.6582 38.8937 30.4326 38.7731 30.1479C38.6525 29.8632 38.6493 29.5424 38.7643 29.2553C38.8792 28.9682 39.1029 28.7382 39.3867 28.6154C39.6705 28.4926 39.9913 28.4869 40.2792 28.5996L44.1855 30.1621C44.474 30.2776 44.7048 30.503 44.8272 30.7887C44.9495 31.0744 44.9533 31.397 44.8378 31.6855ZM32.3378 43.3144C32.3964 43.4575 32.4261 43.6108 32.4252 43.7655C32.4243 43.9202 32.3927 44.0731 32.3324 44.2155C32.2721 44.3579 32.1842 44.487 32.0737 44.5953C31.9633 44.7035 31.8325 44.7889 31.6889 44.8464C31.5453 44.9039 31.3918 44.9324 31.2371 44.9302C31.0825 44.9281 30.9298 44.8953 30.7878 44.8339C30.6459 44.7725 30.5175 44.6835 30.4101 44.5723C30.3027 44.461 30.2184 44.3295 30.162 44.1855L28.5995 40.2792C28.4869 39.9913 28.4926 39.6705 28.6154 39.3867C28.7382 39.1029 28.9682 38.8792 29.2553 38.7643C29.5423 38.6493 29.8632 38.6525 30.1479 38.7731C30.4326 38.8937 30.6582 39.122 30.7753 39.4081L32.3378 43.3144Z" fill="white" stroke="white" stroke-width="4" mask="url(#path-1-inside-1_445_184)"/>
</svg>
