<svg width="50" height="50" viewBox="0 0 50 50" fill="none" xmlns="http://www.w3.org/2000/svg">
<path d="M41.6668 31.2497V15.6247L28.646 8.30078M21.3543 8.30078L8.3335 15.6247V31.2497M11.4585 36.1331L25.0002 43.7497L33.3335 39.0622L38.5418 36.1331M25.0002 17.7081L28.1252 19.531L31.2502 21.3539V28.6456L28.1252 30.4685L25.0002 32.2914L21.8752 30.4685L18.7502 28.6456V21.3539L21.8752 19.531L25.0002 17.7081ZM25.0002 17.7081V10.4164M31.2502 28.1247L38.5418 32.2914M18.7502 28.1247L11.4585 32.2914" stroke="white" stroke-width="2" stroke-linecap="round" stroke-linejoin="round"/>
<path d="M25 10.4165C26.7259 10.4165 28.125 9.01739 28.125 7.2915C28.125 5.56561 26.7259 4.1665 25 4.1665C23.2741 4.1665 21.875 5.56561 21.875 7.2915C21.875 9.01739 23.2741 10.4165 25 10.4165Z" stroke="white" stroke-width="2" stroke-linecap="round" stroke-linejoin="round"/>
<path d="M8.3335 37.5C10.0594 37.5 11.4585 36.1009 11.4585 34.375C11.4585 32.6491 10.0594 31.25 8.3335 31.25C6.60761 31.25 5.2085 32.6491 5.2085 34.375C5.2085 36.1009 6.60761 37.5 8.3335 37.5Z" stroke="white" stroke-width="2" stroke-linecap="round" stroke-linejoin="round"/>
<path d="M41.667 37.5C43.3929 37.5 44.792 36.1009 44.792 34.375C44.792 32.6491 43.3929 31.25 41.667 31.25C39.9411 31.25 38.542 32.6491 38.542 34.375C38.542 36.1009 39.9411 37.5 41.667 37.5Z" stroke="white" stroke-width="2" stroke-linecap="round" stroke-linejoin="round"/>
</svg>
