<svg width="50" height="50" viewBox="0 0 50 50" fill="none" xmlns="http://www.w3.org/2000/svg">
<path d="M35.4168 24.9998C35.4363 26.38 35.1813 27.7503 34.6666 29.0311C34.152 30.3119 33.3879 31.4776 32.4187 32.4606C31.4496 33.4435 30.2948 34.224 29.0214 34.7567C27.748 35.2895 26.3815 35.5638 25.0011 35.5638C23.6208 35.5638 22.2542 35.2895 20.9809 34.7567C19.7075 34.224 18.5527 33.4435 17.5835 32.4606C16.6144 31.4776 15.8503 30.3119 15.3357 29.0311C14.821 27.7503 14.566 26.38 14.5855 24.9998C14.6242 22.2629 15.7386 19.6513 17.6877 17.7295C19.6368 15.8078 22.264 14.7305 25.0011 14.7305C27.7383 14.7305 30.3655 15.8078 32.3146 17.7295C34.2637 19.6513 35.3781 22.2629 35.4168 24.9998Z" stroke="white" stroke-width="2"/>
<path d="M28.8502 28.9851C29.0585 27.7226 29.1668 26.3684 29.1668 24.9997C29.1668 23.6309 29.0585 22.2768 28.8502 21.0143C28.6683 19.8586 28.3652 18.7252 27.946 17.633C27.5606 16.6663 27.1002 15.8997 26.5939 15.3768C26.0897 14.8518 25.5481 14.583 25.0002 14.583C24.4522 14.583 23.9106 14.8538 23.4064 15.3747C22.9002 15.8997 22.4418 16.6663 22.0522 17.633C21.6337 18.7253 21.3314 19.8586 21.1502 21.0143C20.9418 22.2768 20.8335 23.6309 20.8335 24.9997C20.8335 26.3684 20.9418 27.7226 21.1502 28.9851C21.3585 30.2476 21.6668 31.3976 22.0543 32.3663C22.4397 33.333 22.9002 34.0997 23.4064 34.6226C23.9106 35.1476 24.4522 35.4163 25.0002 35.4163C25.5481 35.4163 26.0897 35.1455 26.5939 34.6247C27.1002 34.0997 27.5585 33.333 27.9481 32.3643C28.3665 31.2726 28.6688 30.14 28.8502 28.9851Z" stroke="white" stroke-width="2"/>
<path d="M14.5833 24.9998H35.4167M6.25 21.7019C6.25 15.0394 6.25 11.7082 7.0375 10.5873C7.82292 9.46859 10.9542 8.39567 17.2188 6.25192L18.4125 5.84359C21.6771 4.72484 23.3083 4.1665 25 4.1665C26.6917 4.1665 28.3229 4.72484 31.5875 5.84359L32.7812 6.25192C39.0458 8.39567 42.1771 9.46859 42.9625 10.5873C43.75 11.7082 43.75 15.0415 43.75 21.7019V24.9811C43.75 30.1998 42.0062 34.2248 39.5833 37.2998M6.65208 29.1665C8.4375 38.1207 15.7833 42.7353 20.6229 44.8478C22.125 45.504 22.8771 45.8332 25 45.8332C27.125 45.8332 27.875 45.504 29.3771 44.8478C30.5833 44.3228 31.9417 43.6394 33.3333 42.7769" stroke="white" stroke-width="2" stroke-linecap="round"/>
</svg>
