<svg width="70" height="70" viewBox="0 0 70 70" fill="none" xmlns="http://www.w3.org/2000/svg">
<path fill-rule="evenodd" clip-rule="evenodd" d="M34.6098 19.3165C34.6092 16.9248 35.1688 14.5663 36.2438 12.4298C37.3188 10.2934 38.8793 8.43843 40.8003 7.01366C42.7212 5.58889 44.9492 4.6339 47.3057 4.22521C49.6622 3.81653 52.0817 3.96552 54.3702 4.66024C54.7319 4.76982 55.0591 4.97125 55.3198 5.24489C55.5805 5.51853 55.7658 5.85504 55.8578 6.22164C55.9497 6.58823 55.9451 6.97239 55.8444 7.33668C55.7437 7.70096 55.5503 8.03293 55.2831 8.30024L45.5998 17.9807C45.7878 19.4156 46.4448 20.7482 47.4687 21.7711C48.4926 22.7939 49.8259 23.4496 51.2611 23.6361L60.9386 13.9557C61.2059 13.6885 61.5378 13.4951 61.9021 13.3944C62.2664 13.2937 62.6506 13.2891 63.0172 13.381C63.3838 13.4729 63.7203 13.6583 63.9939 13.919C64.2675 14.1797 64.469 14.5069 64.5786 14.8686C65.3054 17.2627 65.4346 19.7985 64.9546 22.2541C64.4747 24.7098 63.4004 27.0104 61.8256 28.9547C60.2508 30.899 58.2235 32.4278 55.9212 33.4073C53.6188 34.3869 51.1115 34.7873 48.6186 34.5736C45.6494 34.3227 43.1644 34.8652 41.884 36.4227L21.0298 61.754C20.1759 62.7858 19.116 63.6279 17.9178 64.2264C16.7197 64.825 15.4098 65.1667 14.072 65.2297C12.7342 65.2928 11.3979 65.0757 10.1488 64.5926C8.8997 64.1094 7.76526 63.3707 6.81812 62.4237C5.87099 61.4768 5.13203 60.3425 4.64857 59.0935C4.16512 57.8445 3.94781 56.5083 4.01057 55.1705C4.07333 53.8326 4.41477 52.5227 5.01303 51.3244C5.61129 50.1261 6.45318 49.066 7.4848 48.2119L32.8131 27.3548C34.3677 26.0715 34.9131 23.5894 34.6623 20.6202C34.6254 20.1867 34.6078 19.7516 34.6098 19.3165ZM11.6177 55.4102C11.6177 54.8301 11.8482 54.2737 12.2584 53.8634C12.6687 53.4532 13.2251 53.2227 13.8052 53.2227H13.8286C14.4087 53.2227 14.9651 53.4532 15.3753 53.8634C15.7856 54.2737 16.0161 54.8301 16.0161 55.4102V55.4336C16.0161 56.0137 15.7856 56.5701 15.3753 56.9804C14.9651 57.3906 14.4087 57.6211 13.8286 57.6211H13.8052C13.2251 57.6211 12.6687 57.3906 12.2584 56.9804C11.8482 56.5701 11.6177 56.0137 11.6177 55.4336V55.4102Z" fill="white"/>
<path d="M28.9979 24.8291L22.5783 18.4124V13.8449C22.5783 13.4673 22.4805 13.096 22.2944 12.7674C22.1084 12.4387 21.8404 12.1639 21.5166 11.9695L10.5791 5.40699C10.1608 5.15622 9.67067 5.05245 9.1866 5.11216C8.70254 5.17188 8.25232 5.39166 7.90747 5.73657L5.71997 7.92407C5.37505 8.26892 5.15528 8.71914 5.09556 9.20321C5.03585 9.68727 5.13962 10.1774 5.39039 10.5957L11.9529 21.5332C12.1473 21.857 12.4221 22.125 12.7508 22.311C13.0794 22.4971 13.4507 22.5949 13.8283 22.5949H18.39L24.4041 28.6091L28.9979 24.8291Z" fill="white"/>
<path fill-rule="evenodd" clip-rule="evenodd" d="M36.2314 50.1719L48.4319 62.3694C49.3459 63.2835 50.4311 64.0086 51.6254 64.5033C52.8197 64.998 54.0998 65.2526 55.3925 65.2526C56.6852 65.2526 57.9652 64.998 59.1596 64.5033C60.3539 64.0086 61.439 63.2835 62.3531 62.3694C63.2672 61.4553 63.9923 60.3702 64.487 59.1759C64.9817 57.9816 65.2363 56.7015 65.2363 55.4088C65.2363 54.1161 64.9817 52.836 64.487 51.6417C63.9923 50.4474 63.2672 49.3623 62.3531 48.4482L52.7106 38.8086C51.2326 39.0182 49.7356 39.0603 48.2481 38.934C47.0989 38.8348 46.2589 38.9165 45.7194 39.0565C45.5487 39.0931 45.3846 39.1551 45.2323 39.2403L36.2314 50.1719ZM46.1889 46.2053C46.5991 45.7956 47.1551 45.5655 47.7348 45.5655C48.3145 45.5655 48.8705 45.7956 49.2806 46.2053L54.7494 51.6769C54.9643 51.8772 55.1367 52.1187 55.2562 52.387C55.3758 52.6554 55.4401 52.945 55.4453 53.2387C55.4504 53.5325 55.3964 53.8242 55.2864 54.0966C55.1764 54.369 55.0126 54.6164 54.8049 54.8241C54.5972 55.0318 54.3497 55.1956 54.0774 55.3056C53.805 55.4156 53.5132 55.4697 53.2195 55.4645C52.9258 55.4593 52.6361 55.395 52.3678 55.2755C52.0995 55.1559 51.858 54.9835 51.6577 54.7686L46.1889 49.2998C45.7793 48.8897 45.5492 48.3337 45.5492 47.754C45.5492 47.1743 45.7793 46.6183 46.1889 46.2082" fill="white"/>
</svg>
