<svg width="70" height="70" viewBox="0 0 70 70" fill="none" xmlns="http://www.w3.org/2000/svg">
<path fill-rule="evenodd" clip-rule="evenodd" d="M61.6981 28.7756C54.5191 21.597 44.7824 17.5641 34.63 17.5641C24.4776 17.5641 14.741 21.597 7.5619 28.7756C6.94333 29.3736 6.11463 29.7048 5.25429 29.6977C4.39395 29.6906 3.57081 29.3459 2.96215 28.7378C2.35349 28.1298 2.00802 27.3069 2.00014 26.4466C1.99226 25.5863 2.32261 24.7573 2.92003 24.1381C20.4331 6.62063 48.8269 6.62063 66.34 24.1381C66.6533 24.441 66.9031 24.8031 67.0748 25.2036C67.2466 25.604 67.3369 26.0346 67.3405 26.4702C67.3441 26.9059 67.2609 27.338 67.0957 27.7411C66.9305 28.1443 66.6867 28.5106 66.3785 28.8185C66.0702 29.1264 65.7038 29.3699 65.3004 29.5347C64.8971 29.6995 64.465 29.7823 64.0293 29.7783C63.5936 29.7743 63.1631 29.6836 62.7629 29.5115C62.3626 29.3393 62.0007 29.0892 61.6981 28.7756ZM52.4188 38.055C50.0828 35.7188 47.3095 33.8657 44.2573 32.6014C41.2051 31.3371 37.9337 30.6863 34.63 30.6863C31.3263 30.6863 28.055 31.3371 25.0028 32.6014C21.9505 33.8657 19.1773 35.7188 16.8413 38.055C16.2193 38.6346 15.3966 38.9501 14.5465 38.9351C13.6964 38.9201 12.8854 38.5758 12.2842 37.9746C11.683 37.3734 11.3386 36.5624 11.3236 35.7123C11.3086 34.8622 11.6242 34.0395 12.2038 33.4175C18.152 27.4705 26.2188 24.1296 34.63 24.1296C43.0412 24.1296 51.108 27.4705 57.0563 33.4175C57.6359 34.0395 57.9514 34.8622 57.9364 35.7123C57.9214 36.5624 57.577 37.3734 56.9759 37.9746C56.3747 38.5758 55.5636 38.9201 54.7136 38.9351C53.8635 38.9501 53.0408 38.6346 52.4188 38.055ZM43.135 47.3387C40.8787 45.0826 37.8186 43.8151 34.6278 43.8151C31.437 43.8151 28.3769 45.0826 26.1206 47.3387C25.8178 47.652 25.4556 47.9018 25.0552 48.0736C24.6548 48.2453 24.2242 48.3357 23.7885 48.3392C23.3528 48.3428 22.9208 48.2596 22.5176 48.0944C22.1145 47.9292 21.7482 47.6854 21.4403 47.3772C21.1323 47.069 20.8889 46.7025 20.7241 46.2992C20.5593 45.8958 20.4765 45.4637 20.4805 45.0281C20.4845 44.5924 20.5752 44.1618 20.7473 43.7616C20.9195 43.3614 21.1696 42.9994 21.4831 42.6969C24.9701 39.2104 29.6991 37.2518 34.63 37.2518C39.561 37.2518 44.29 39.2104 47.7769 42.6969C48.3565 43.3189 48.672 44.1416 48.657 44.9917C48.642 45.8417 48.2977 46.6528 47.6965 47.254C47.0953 47.8552 46.2843 48.1995 45.4342 48.2145C44.5841 48.2295 43.7614 47.914 43.1394 47.3344M30.7669 51.9719C31.2747 51.4639 31.8777 51.0609 32.5413 50.786C33.2049 50.5111 33.9161 50.3696 34.6344 50.3696C35.3527 50.3696 36.0639 50.5111 36.7275 50.786C37.3911 51.0609 37.9941 51.4639 38.5019 51.9719C39.1164 52.5871 39.4615 53.4211 39.4615 54.2906C39.4615 55.1602 39.1164 55.9941 38.5019 56.6094L36.9488 58.1625C36.3335 58.777 35.4996 59.1221 34.63 59.1221C33.7605 59.1221 32.9265 58.777 32.3113 58.1625L30.7625 56.6137C30.1481 55.9985 29.8029 55.1645 29.8029 54.295C29.8029 53.4255 30.1481 52.5915 30.7625 51.9762" fill="white"/>
</svg>
