<svg width="619" height="496" viewBox="0 0 619 496" fill="none" xmlns="http://www.w3.org/2000/svg">
<path d="M0.194174 127.289L44.3883 171.044C191.113 25.7758 427.994 25.7758 574.718 171.044L618.913 127.289C448.323 -41.6077 170.784 -41.6077 0.194174 127.289ZM88.5825 214.8L132.777 258.555C230.446 161.855 388.661 161.855 486.33 258.555L530.524 214.8C408.548 94.0344 210.558 94.0344 88.5825 214.8ZM176.971 302.311L221.165 346.066C270.221 297.498 348.886 297.498 397.942 346.066L442.136 302.311C369.216 230.114 249.891 230.114 176.971 302.311ZM265.359 389.822C241.052 413.887 241.052 453.267 265.359 477.333C289.666 501.398 329.441 501.398 353.748 477.333C378.054 453.267 378.054 413.887 353.748 389.822C329.441 365.756 289.666 365.756 265.359 389.822Z" fill="#6A0F1D" fill-opacity="0.31"/>
</svg>
